<?xml version='1.0' encoding='utf-8'?>
<svg xmlns="http://www.w3.org/2000/svg" width="1920" height="1080" viewBox="0 0 1920 1080" data-theme="light">
  <style>
        @font-face {
            font-family: 'Inter';
            src: url('assets/fonts/Inter-Regular.ttf') format('truetype');
            font-weight: 400;
            font-style: normal;
            font-display: swap;
        }
        @font-face {
            font-family: 'Inter';
            src: url('assets/fonts/Inter-Bold.ttf') format('truetype');
            font-weight: 600;
            font-style: normal;
            font-display: swap;
        }
        @font-face {
            font-family: 'Inter';
            src: url('assets/fonts/Inter-Bold.ttf') format('truetype');
            font-weight: 800;
            font-style: normal;
            font-display: swap;
        }
        
:root {
    --background: #f8fafc;
    --panel: #ffffff;
    --primary-text: #0f172a;
    --muted-text: #64748b;
    --inverse-text: #ffffff;
    --border: #e2e8f0;
    --shadow-color: #000000;
    --icon-pad-bg: #1e293b;
    --art-glow: #0891b2;
    --art-glow-opacity: 0.10;
    --art-sheen: #ffffff;
    --art-sheen-opacity: 0.34;
    --art-shadow: #0f172a;
    --art-shadow-opacity: 0.14;
    --art-muted-line: #94a3b8;
    --art-panel-tint: #f1f5f9;
    --font-family: 'Inter', 'Segoe UI', 'Kalam', Roboto, Helvetica, Arial, sans-serif;
    --radius-xl: 16px;
    --font-family-headline: 'Inter', 'Segoe UI', 'Kalam', Roboto, Helvetica, Arial, sans-serif;
    --font-family-body: 'Inter', 'Segoe UI', 'Kalam', Roboto, Helvetica, Arial, sans-serif;
    --font-heading: 'Inter', 'Segoe UI', 'Kalam', Roboto, Helvetica, Arial, sans-serif;
    --font-body: 'Inter', 'Segoe UI', 'Kalam', Roboto, Helvetica, Arial, sans-serif;
    --font-size-h1: 56px;
    --font-size-h2: 40px;
    --font-size-h3: 28px;
    --font-size-body: 24px;
    --font-size-caption: 18px;
    --secondary-text: var(--muted-text);
    --panel-border: var(--border);
    --font-weight-normal: 400;
    --font-weight-medium: 500;
    --font-weight-semibold: 600;
    --font-weight-bold: 700;
    --spacing-gutter-pct: 0.07;
    --spacing-top-pct: 0.15;
    --spacing-bottom-pct: 0.07;
    --spacing-title-y-pct: 0.055;
    --accent-1: #2563eb;
    --accent-2: #16a34a;
    --accent-3: #ea580c;
    --accent-4: #7c3aed;
    --accent-5: #0284c7;
    --accent-6: #475569;
}
:root[data-theme="dark"] {
    --background: #0f172a;
    --panel: #1e293b;
    --primary-text: #f1f5f9;
    --muted-text: #94a3b8;
    --inverse-text: #0f172a;
    --border: #334155;
    --shadow-color: #000000;
    --icon-pad-bg: #1e293b;
    --art-glow: #7dd3fc;
    --art-glow-opacity: 0.18;
    --art-sheen: #ffffff;
    --art-sheen-opacity: 0.18;
    --art-shadow: #000000;
    --art-shadow-opacity: 0.28;
    --art-muted-line: #64748b;
    --art-panel-tint: #1e293b;
    --accent-1: #60a5fa;
    --accent-2: #4ade80;
    --accent-3: #f97316;
    --accent-4: #a78bfa;
    --accent-5: #38bdf8;
    --accent-6: #94a3b8;
}
:root[data-theme="light"] {
    --background: #f8fafc;
    --panel: #ffffff;
    --primary-text: #0f172a;
    --muted-text: #64748b;
    --inverse-text: #ffffff;
    --border: #e2e8f0;
    --shadow-color: #000000;
    --icon-pad-bg: #1e293b;
    --art-glow: #0891b2;
    --art-glow-opacity: 0.10;
    --art-sheen: #ffffff;
    --art-sheen-opacity: 0.34;
    --art-shadow: #0f172a;
    --art-shadow-opacity: 0.14;
    --art-muted-line: #94a3b8;
    --art-panel-tint: #f1f5f9;
    --accent-1: #2563eb;
    --accent-2: #16a34a;
    --accent-3: #ea580c;
    --accent-4: #7c3aed;
    --accent-5: #0284c7;
    --accent-6: #475569;
}</style>
  <rect x="0" y="0" width="1.92E+3" height="1.08E+3" fill="#252a34" stroke="none" id="programmatic_background"/>
  <line id="HEADER_DECOR" x1="960.0" x2="1080.0" y1="127.0" y2="127.0" stroke="var(--accent-1)" stroke-width="6" stroke-linecap="round"/>
  <defs>
    <pattern id="svg0f232bd5-napkin-hatch" patternUnits="userSpaceOnUse" width="12" height="12">
      <path d="M -3 12 L 12 -3 M 0 15 L 15 0" fill="none" stroke="var(--primary-text)" stroke-width="1" stroke-opacity="0.05"/>
    </pattern>
    <filter id="svg0f232bd5-shadow" x="-30%" y="-30%" width="160%" height="160%">
      <feDropShadow dx="0" dy="3" stdDeviation="6" flood-color="#000000" flood-opacity="0.10"/>
      <feDropShadow dx="0" dy="8" stdDeviation="12" flood-color="#000000" flood-opacity="0.16"/>
    </filter>
    <radialGradient id="svg0f232bd5-universal-edge-vignette" cx="50%" cy="50%" r="72%">
      <stop offset="0%" stop-color="var(--background)" stop-opacity="0"/>
      <stop offset="72%" stop-color="var(--background)" stop-opacity="0.12"/>
      <stop offset="100%" stop-color="var(--primary-text)" stop-opacity="0.08"/>
    </radialGradient>
    <linearGradient id="svg0f232bd5-universal-surface-sheen" x1="0%" y1="0%" x2="100%" y2="100%">
      <stop offset="0%" stop-color="var(--art-sheen)" stop-opacity="var(--art-sheen-opacity)"/>
      <stop offset="46%" stop-color="var(--art-sheen)" stop-opacity="0.035"/>
      <stop offset="100%" stop-color="var(--art-panel-tint)" stop-opacity="0.14"/>
    </linearGradient>
    <radialGradient id="svg0f232bd5-universal-icon-aura" cx="50%" cy="42%" r="64%">
      <stop offset="0%" stop-color="var(--art-glow)" stop-opacity="var(--art-glow-opacity)"/>
      <stop offset="100%" stop-color="var(--background)" stop-opacity="0"/>
    </radialGradient>
    <filter id="svg0f232bd5-text-glow" x="-20%" y="-20%" width="140%" height="140%">
      <feDropShadow dx="0" dy="0" stdDeviation="2" flood-color="#000000" flood-opacity="0.4"/>
    </filter>
    <marker id="svg0f232bd5-arrowhead" markerWidth="10" markerHeight="7" refX="9" refY="3.5" orient="auto" markerUnits="strokeWidth">
      <polygon points="0 0, 10 3.5, 0 7" fill="var(--muted-text)" opacity="0.6"/>
    </marker>
  </defs>
  <rect width="100%" height="100%" fill="var(--background)" id="CANVAS_BG"/>
  <rect width="100%" height="100%" fill="url(#svg0f232bd5-napkin-hatch)"/>
  <rect id="UNIVERSAL_EDGE_VIGNETTE" width="100%" height="100%" fill="url(#svg0f232bd5-universal-edge-vignette)" opacity="0.62"/>
  <text id="TITLE" x="960.0" y="59" text-anchor="middle" font-size="60" font-weight="800" fill="#0f172a" style="font-size: 60px; font-family: Inter, Segoe UI, Kalam, Roboto, Helvetica, Arial, sans-serif; font-weight: 700; letter-spacing:-1.2px;" data-final-font-size="60">
    <tspan x="960.0" dy="68.00px">Testable Claims of the 1994 Fleet</tspan>
  </text>
  <rect id="TITLE_FRAME" x="134" y="54" width="1652" height="100" fill="none"/>
  <rect x="150" y="150" width="1620" height="850" rx="40" fill="var(--panel)" fill-opacity="0.18" stroke="var(--muted-text)" stroke-width="2" opacity="0.90"/>
  <line x1="360" y1="212.0" x2="360" y2="938.0" stroke="var(--muted-text)" stroke-width="18" stroke-linecap="round" opacity="0.18"/>
  <line x1="360" y1="212.0" x2="360" y2="938.0" stroke="var(--border)" stroke-width="3" stroke-linecap="round" opacity="0.72"/>
  <g id="DIAGRAM_MAIN">
    <g filter="url(#svg0f232bd5-shadow)">
      <line x1="404.0" y1="240.0" x2="420.0" y2="240.0" stroke="var(--accent-1)" stroke-width="5" opacity="0.76" stroke-linecap="round"/>
      <rect id="ITEM_1_BG" x="420.0" y="174.0" width="1085" height="152" rx="22" fill="var(--panel)" fill-opacity="0.97" stroke="var(--accent-1)" stroke-width="2.5"/>
      <rect x="420.0" y="174.0" width="1085" height="152" rx="16" fill="url(#svg0f232bd5-universal-surface-sheen)" opacity="0.88"/>
      <rect x="420.0" y="174.0" width="14" height="132" rx="7" fill="var(--accent-1)" fill-opacity="0.90"/>
      <circle id="ITEM_1_PAD" cx="360" cy="240.0" r="46" fill="var(--icon-pad-bg)" opacity="0.95" fill-opacity="0.9" stroke-width="2" stroke="var(--primary-text)"/>
      <circle id="ITEM_1_PAD_INNER" cx="360" cy="240.0" r="35.88" fill="var(--accent-3)" fill-opacity="0.22"/>
      <circle cx="360" cy="240.0" r="38" fill="none" stroke="var(--accent-1)" stroke-width="3" stroke-dasharray="6 4"/>
      <g id="ITEM_1_ICON" transform="translate(324, 204.0)" data-icon-size="72" stroke-dasharray="6 4">
        <g transform="translate(-3.050847457627119,-3.050847457627124) scale(3.2542372881355934)" vector-effect="non-scaling-stroke" stroke-width="2.58" stroke-linecap="round" stroke-linejoin="round" stroke-opacity="1.0">
          <path d="M16 21v-2a4 4 0 0 0-4-4H6a4 4 0 0 0-4 4v2" vector-effect="non-scaling-stroke" fill="none" stroke="#f1f5f9"/>
          <path d="M16 3.128a4 4 0 0 1 0 7.744" vector-effect="non-scaling-stroke" fill="none" stroke="#f1f5f9"/>
          <path d="M22 21v-2a4 4 0 0 0-3-3.87" vector-effect="non-scaling-stroke" fill="none" stroke="#f1f5f9"/>
          <circle cx="9" cy="7" r="4" vector-effect="non-scaling-stroke" fill="none" stroke="#f1f5f9"/>
        </g>
      </g>
      <text id="ITEM_1_HEAD" x="500.0" y="192.0" text-anchor="start" font-weight="800" font-size="30" fill="var(--primary-text)" data-bg-id="ITEM_1_BG" fill-opacity="1.0" style="font-size: 30px; font-family: Inter, Segoe UI, Kalam, Roboto, Helvetica, Arial, sans-serif; font-weight: 700; letter-spacing:-0.4px;" data-final-font-size="30">
        <tspan x="500.0" dy="24.25px">Public Landings</tspan>
      </text>
      <rect id="ITEM_1_HEAD_FRAME" x="500" y="192.0" width="760" height="32" fill="none"/>
      <text id="ITEM_1_BODY" x="500.0" y="230.0" text-anchor="start" font-size="24" fill="var(--primary-text)" data-bg-id="ITEM_1_BG" style="font-size: 26px; font-family: Inter, Segoe UI, Kalam, Roboto, Helvetica, Arial, sans-serif; font-weight: 400;" data-final-font-size="26">
        <tspan x="500.0" dy="29.22px">Extraterrestrial crafts land in visible public locations</tspan>
      </text>
      <rect id="ITEM_1_BODY_FRAME" x="500" y="230.0" width="860" height="72" fill="none"/>
      <text x="1460" y="216.0" text-anchor="end" font-size="18" font-weight="800" fill="var(--accent-1)" opacity="0.70">01</text>
    </g>
    <g filter="url(#svg0f232bd5-shadow)">
      <line x1="404.0" y1="374.0" x2="420.0" y2="374.0" stroke="var(--accent-2)" stroke-width="5" opacity="0.76" stroke-linecap="round"/>
      <rect id="ITEM_2_BG" x="420.0" y="308.0" width="1085" height="152" rx="22" fill="var(--panel)" fill-opacity="0.97" stroke="var(--accent-2)" stroke-width="2.5"/>
      <rect x="420.0" y="308.0" width="1085" height="152" rx="16" fill="url(#svg0f232bd5-universal-surface-sheen)" opacity="0.88"/>
      <rect x="420.0" y="308.0" width="14" height="132" rx="7" fill="var(--accent-2)" fill-opacity="0.90"/>
      <circle id="ITEM_2_PAD" cx="360" cy="374.0" r="46" fill="var(--icon-pad-bg)" opacity="0.95" fill-opacity="0.9" stroke-width="2" stroke="var(--primary-text)"/>
      <circle id="ITEM_2_PAD_INNER" cx="360" cy="374.0" r="35.88" fill="var(--accent-4)" fill-opacity="0.22"/>
      <circle cx="360" cy="374.0" r="38" fill="none" stroke="var(--accent-2)" stroke-width="3" stroke-dasharray="6 4"/>
      <g id="ITEM_2_ICON" transform="translate(324, 338.0)" data-icon-size="72" stroke-dasharray="6 4">
        <g transform="translate(-4.778761061946904,-5.097345132743363) scale(2.5486725663716814)">
          <path d="M10.3535 3.06063C10.1582 2.86537 10.1582 2.54879 10.3535 2.35352C10.5487 2.15826 10.8653 2.15826 11.0606 2.35352L14.9497 6.24261L14.2426 6.94972L10.3535 3.06063Z" fill="#636363"/>
          <path d="M18.889 2.35348C19.0842 2.15822 19.4008 2.15822 19.5961 2.35348C19.7914 2.54874 19.7914 2.86532 19.5961 3.06058L15.707 6.94967L14.9999 6.24257L18.889 2.35348Z" fill="#636363"/>
          <path d="M11.0002 23.5L8.00024 23L6.46544 28.7279C6.31248 29.2987 6.65125 29.8855 7.22209 30.0385C7.73725 30.1765 8.2754 29.9141 8.48393 29.4232L11.0002 23.5Z" fill="#636363"/>
          <path d="M21.0002 23.5L24.0002 23L25.535 28.7279C25.688 29.2987 25.3492 29.8855 24.7784 30.0385C24.2632 30.1765 23.7251 29.9141 23.5165 29.4232L21.0002 23.5Z" fill="#636363"/>
          <path d="M3 9C3 7.34315 4.34315 6 6 6H26C27.6569 6 29 7.34315 29 9V22C29 23.6569 27.6569 25 26 25H6C4.34315 25 3 23.6569 3 22V9Z" fill="#9B9B9B"/>
          <circle cx="25.75" cy="13.25" r="1.25" fill="#CA0B4A"/>
          <circle cx="25.75" cy="9.25" r="1.25" fill="#636363"/>
          <path d="M6.5 11.5C6.5 10.3954 7.39543 9.5 8.5 9.5H20.5C21.6046 9.5 22.5 10.3954 22.5 11.5V19.5C22.5 20.6046 21.6046 21.5 20.5 21.5H8.5C7.39543 21.5 6.5 20.6046 6.5 19.5V11.5Z" fill="#83CBFF"/>
          <path d="M21 10C21.5523 10 22 10.4477 22 11V20C22 20.5523 21.5523 21 21 21H8C7.44772 21 7 20.5523 7 20V11C7 10.4477 7.44772 10 8 10H21ZM8 9C6.89543 9 6 9.89543 6 11V20C6 21.1046 6.89543 22 8 22H21C22.1046 22 23 21.1046 23 20V11C23 9.89543 22.1046 9 21 9H8Z" fill="#321B41"/>
        </g>
      </g>
      <text id="ITEM_2_HEAD" x="500.0" y="326.0" text-anchor="start" font-weight="800" font-size="30" fill="var(--accent-4)" data-bg-id="ITEM_2_BG" fill-opacity="1.0" style="font-size: 30px; font-family: Inter, Segoe UI, Kalam, Roboto, Helvetica, Arial, sans-serif; font-weight: 700; letter-spacing:-0.4px;" data-final-font-size="30">
        <tspan x="500.0" dy="24.25px">Media Coverage</tspan>
      </text>
      <rect id="ITEM_2_HEAD_FRAME" x="500" y="326.0" width="760" height="32" fill="none"/>
      <text id="ITEM_2_BODY" x="500.0" y="364.0" text-anchor="start" font-size="24" fill="var(--primary-text)" data-bg-id="ITEM_2_BG" style="font-size: 26px; font-family: Inter, Segoe UI, Kalam, Roboto, Helvetica, Arial, sans-serif; font-weight: 400;" data-final-font-size="26">
        <tspan x="500.0" dy="29.22px">Worldwide media networks broadcast the arrival live</tspan>
      </text>
      <rect id="ITEM_2_BODY_FRAME" x="500" y="364.0" width="860" height="72" fill="none"/>
      <text x="1460" y="350.0" text-anchor="end" font-size="18" font-weight="800" fill="var(--accent-2)" opacity="0.70">02</text>
    </g>
    <g filter="url(#svg0f232bd5-shadow)">
      <line x1="404.0" y1="508.0" x2="420.0" y2="508.0" stroke="var(--accent-3)" stroke-width="5" opacity="0.76" stroke-linecap="round"/>
      <rect id="ITEM_3_BG" x="420.0" y="442.0" width="1085" height="152" rx="22" fill="var(--panel)" fill-opacity="0.97" stroke="var(--accent-3)" stroke-width="2.5"/>
      <rect x="420.0" y="442.0" width="1085" height="152" rx="16" fill="url(#svg0f232bd5-universal-surface-sheen)" opacity="0.88"/>
      <rect x="420.0" y="442.0" width="14" height="132" rx="7" fill="var(--accent-3)" fill-opacity="0.90"/>
      <circle id="ITEM_3_PAD" cx="360" cy="508.0" r="46" fill="var(--icon-pad-bg)" opacity="0.95" fill-opacity="0.9" stroke-width="2" stroke="var(--primary-text)"/>
      <circle id="ITEM_3_PAD_INNER" cx="360" cy="508.0" r="35.88" fill="var(--accent-5)" fill-opacity="0.22"/>
      <circle cx="360" cy="508.0" r="38" fill="none" stroke="var(--accent-3)" stroke-width="3" stroke-dasharray="6 4"/>
      <g id="ITEM_3_ICON" transform="translate(324, 472.0)" data-icon-size="72" stroke-dasharray="6 4">
        <g transform="translate(-1.75609756097561,-1.75609756097561) scale(5.351916376306621)" vector-effect="non-scaling-stroke" stroke-width="2.58" stroke-linecap="round" stroke-linejoin="round" stroke-opacity="1.0">
          <path id="Vector 1313" fill="none" d="M3.5148 5.72978v1.56669l3.54433 -1.99223 3.54437 1.99223V5.72978c0 -1.95748 -1.58689 -3.54433 -3.54437 -3.54433 -1.95748 0 -3.54433 1.58685 -3.54433 3.54433Z" vector-effect="non-scaling-stroke" stroke="#f1f5f9"/>
          <path id="Vector 1315" stroke="#f1f5f9" d="M3.5148 7.29646V5.72977c0 -1.95748 1.58685 -3.54433 3.54433 -3.54433 1.95748 0 3.54437 1.58685 3.54437 3.54433v1.56669" vector-effect="non-scaling-stroke" fill="none"/>
          <path id="Vector 1316" fill="none" d="M12.3756 13.2614H1.74265V8.83106l10.63295 -0.00001v4.43035Z" vector-effect="non-scaling-stroke" stroke="#f1f5f9"/>
          <path id="Vector 1314" fill="none" d="M13.2617 8.83104H0.856567L7.05915 5.28671l6.20255 3.54433Z" vector-effect="non-scaling-stroke" stroke="#f1f5f9"/>
          <path id="Vector 1317" stroke="#f1f5f9" d="M13.2617 8.83104H0.856567L7.05915 5.28671l6.20255 3.54433Z" vector-effect="non-scaling-stroke" fill="none"/>
          <path id="Vector 613" stroke="#f1f5f9" d="M0.856567 13.2615H13.2617" vector-effect="non-scaling-stroke" fill="none"/>
          <path id="Vector 614" stroke="#f1f5f9" d="M1.74265 8.83102v4.43038" vector-effect="non-scaling-stroke" fill="none"/>
          <path id="Vector 616" stroke="#f1f5f9" d="M4.40088 8.83102v4.43038" vector-effect="non-scaling-stroke" fill="none"/>
          <path id="Vector 1054" stroke="#f1f5f9" d="M7.05911 8.83102v4.43038" vector-effect="non-scaling-stroke" fill="none"/>
          <path id="Vector 617" stroke="#f1f5f9" d="M9.71735 8.83102v4.43038" vector-effect="non-scaling-stroke" fill="none"/>
          <path id="Vector 615" stroke="#f1f5f9" d="M12.3756 8.83102v4.43038" vector-effect="non-scaling-stroke" fill="none"/>
          <path id="Vector 1053" stroke="#f1f5f9" d="M7.05917 2.18545V0.856323" vector-effect="non-scaling-stroke" fill="none"/>
        </g>
      </g>
      <text id="ITEM_3_HEAD" x="500.0" y="460.0" text-anchor="start" font-weight="800" font-size="30" fill="var(--primary-text)" data-bg-id="ITEM_3_BG" fill-opacity="1.0" style="font-size: 30px; font-family: Inter, Segoe UI, Kalam, Roboto, Helvetica, Arial, sans-serif; font-weight: 700; letter-spacing:-0.4px;" data-final-font-size="30">
        <tspan x="500.0" dy="24.25px">Government Cooperation</tspan>
      </text>
      <rect id="ITEM_3_HEAD_FRAME" x="500" y="460.0" width="760" height="32" fill="none"/>
      <text id="ITEM_3_BODY" x="500.0" y="498.0" text-anchor="start" font-size="24" fill="var(--primary-text)" data-bg-id="ITEM_3_BG" style="font-size: 26px; font-family: Inter, Segoe UI, Kalam, Roboto, Helvetica, Arial, sans-serif; font-weight: 400;" data-final-font-size="26">
        <tspan x="500.0" dy="23.24px">Official authorities coordinate with extraterrestrial</tspan>
        <tspan x="500.0" dy="29.90px">entities publicly</tspan>
      </text>
      <rect id="ITEM_3_BODY_FRAME" x="500" y="498.0" width="860" height="72" fill="none"/>
      <text x="1460" y="484.0" text-anchor="end" font-size="18" font-weight="800" fill="var(--accent-3)" opacity="0.70">03</text>
    </g>
    <g filter="url(#svg0f232bd5-shadow)">
      <line x1="404.0" y1="642.0" x2="420.0" y2="642.0" stroke="var(--accent-4)" stroke-width="5" opacity="0.76" stroke-linecap="round"/>
      <rect id="ITEM_4_BG" x="420.0" y="576.0" width="1085" height="152" rx="22" fill="var(--panel)" fill-opacity="0.97" stroke="var(--accent-4)" stroke-width="2.5"/>
      <rect x="420.0" y="576.0" width="1085" height="152" rx="16" fill="url(#svg0f232bd5-universal-surface-sheen)" opacity="0.88"/>
      <rect x="420.0" y="576.0" width="14" height="132" rx="7" fill="var(--accent-4)" fill-opacity="0.90"/>
      <circle id="ITEM_4_PAD" cx="360" cy="642.0" r="46" fill="var(--icon-pad-bg)" opacity="0.95" fill-opacity="0.9" stroke-width="2" stroke="var(--primary-text)"/>
      <circle id="ITEM_4_PAD_INNER" cx="360" cy="642.0" r="35.88" fill="var(--accent-6)" fill-opacity="0.22"/>
      <circle cx="360" cy="642.0" r="38" fill="none" stroke="var(--accent-4)" stroke-width="3" stroke-dasharray="6 4"/>
      <g id="ITEM_4_ICON" transform="translate(324, 606.0)" data-icon-size="72" stroke-dasharray="6 4">
        <g transform="translate(-3.050847457627124,-3.050847457627119) scale(3.2542372881355934)" vector-effect="non-scaling-stroke" stroke-width="2.58" stroke-linecap="round" stroke-linejoin="round" stroke-opacity="1.0">
          <ellipse cx="12" cy="5" rx="9" ry="3" vector-effect="non-scaling-stroke" fill="none" stroke="#f1f5f9"/>
          <path d="M3 5V19A9 3 0 0 0 21 19V5" vector-effect="non-scaling-stroke" fill="none" stroke="#f1f5f9"/>
          <path d="M3 12A9 3 0 0 0 21 12" vector-effect="non-scaling-stroke" fill="none" stroke="#f1f5f9"/>
        </g>
      </g>
      <text id="ITEM_4_HEAD" x="500.0" y="594.0" text-anchor="start" font-weight="800" font-size="30" fill="var(--accent-6)" data-bg-id="ITEM_4_BG" fill-opacity="1.0" style="font-size: 30px; font-family: Inter, Segoe UI, Kalam, Roboto, Helvetica, Arial, sans-serif; font-weight: 700; letter-spacing:-0.4px;" data-final-font-size="30">
        <tspan x="500.0" dy="24.25px">Multiple Cultures</tspan>
      </text>
      <rect id="ITEM_4_HEAD_FRAME" x="500" y="594.0" width="760" height="32" fill="none"/>
      <text id="ITEM_4_BODY" x="500.0" y="632.0" text-anchor="start" font-size="24" fill="var(--primary-text)" data-bg-id="ITEM_4_BG" style="font-size: 26px; font-family: Inter, Segoe UI, Kalam, Roboto, Helvetica, Arial, sans-serif; font-weight: 400;" data-final-font-size="26">
        <tspan x="500.0" dy="29.22px">Arrival of various distinct extraterrestrial cultures occurs</tspan>
      </text>
      <rect id="ITEM_4_BODY_FRAME" x="500" y="632.0" width="860" height="72" fill="none"/>
      <text x="1460" y="618.0" text-anchor="end" font-size="18" font-weight="800" fill="var(--accent-4)" opacity="0.70">04</text>
    </g>
    <g filter="url(#svg0f232bd5-shadow)">
      <line x1="404.0" y1="776.0" x2="420.0" y2="776.0" stroke="var(--accent-5)" stroke-width="5" opacity="0.76" stroke-linecap="round"/>
      <rect id="ITEM_5_BG" x="420.0" y="710.0" width="1085" height="152" rx="22" fill="var(--panel)" fill-opacity="0.97" stroke="var(--accent-5)" stroke-width="2.5"/>
      <rect x="420.0" y="710.0" width="1085" height="152" rx="16" fill="url(#svg0f232bd5-universal-surface-sheen)" opacity="0.88"/>
      <rect x="420.0" y="710.0" width="14" height="132" rx="7" fill="var(--accent-5)" fill-opacity="0.90"/>
      <circle id="ITEM_5_PAD" cx="360" cy="776.0" r="46" fill="var(--icon-pad-bg)" opacity="0.95" fill-opacity="0.9" stroke-width="2" stroke="var(--primary-text)"/>
      <circle id="ITEM_5_PAD_INNER" cx="360" cy="776.0" r="35.88" fill="var(--accent-1)" fill-opacity="0.22"/>
      <circle cx="360" cy="776.0" r="38" fill="none" stroke="var(--accent-5)" stroke-width="3" stroke-dasharray="6 4"/>
      <g id="ITEM_5_ICON" transform="translate(324, 740.0)" data-icon-size="72" stroke-dasharray="6 4">
        <g transform="translate(-5.142857142857143,-5.142857142857143) scale(2.5714285714285716)">
          <path d="M2 9.00001L15.2666 6.15716C15.7501 6.05357 16.2499 6.05357 16.7334 6.15716L30 9.00001V24.8C30 27.6719 27.6719 30 24.8 30H7.2C4.32812 30 2 27.6719 2 24.8V9.00001Z" fill="#B4ACBC"/>
          <path d="M3 8.00005L15.213 5.18167C15.7309 5.06216 16.2691 5.06216 16.787 5.18167L29 8.00005V24.5001C29 26.9853 26.9853 29.0001 24.5 29.0001H7.5C5.01472 29.0001 3 26.9853 3 24.5001V8.00005Z" fill="#F3EEF8"/>
          <path d="M7.9998 12C7.88935 12 7.7998 12.0895 7.7998 12.2V14.8C7.7998 14.9105 7.88935 15 7.9998 15H10.7998C10.9103 15 10.9998 14.9105 10.9998 14.8V12.2C10.9998 12.0895 10.9103 12 10.7998 12H7.9998Z" fill="#998EA4"/>
          <path d="M7.9998 17.5C7.88935 17.5 7.7998 17.5895 7.7998 17.7V20.3C7.7998 20.4105 7.88935 20.5 7.9998 20.5H10.7998C10.9103 20.5 10.9998 20.4105 10.9998 20.3V17.7C10.9998 17.5895 10.9103 17.5 10.7998 17.5H7.9998Z" fill="#998EA4"/>
          <path d="M7.7998 23.1C7.7998 22.9896 7.88935 22.9 7.9998 22.9H10.7998C10.9103 22.9 10.9998 22.9896 10.9998 23.1V25.7C10.9998 25.8105 10.9103 25.9 10.7998 25.9H7.9998C7.88935 25.9 7.7998 25.8105 7.7998 25.7V23.1Z" fill="#998EA4"/>
          <path d="M14.5998 12C14.4893 12 14.3998 12.0895 14.3998 12.2V14.8C14.3998 14.9105 14.4893 15 14.5998 15H17.3998C17.5102 15 17.5998 14.9105 17.5998 14.8V12.2C17.5998 12.0895 17.5102 12 17.3998 12H14.5998Z" fill="#998EA4"/>
          <path d="M14.3998 17.7C14.3998 17.5895 14.4893 17.5 14.5998 17.5H17.3998C17.5102 17.5 17.5998 17.5895 17.5998 17.7V20.3C17.5998 20.4105 17.5102 20.5 17.3998 20.5H14.5998C14.4893 20.5 14.3998 20.4105 14.3998 20.3V17.7Z" fill="#998EA4"/>
          <path d="M14.5998 22.9C14.4893 22.9 14.3998 22.9896 14.3998 23.1V25.7C14.3998 25.8105 14.4893 25.9 14.5998 25.9H17.3998C17.5102 25.9 17.5998 25.8105 17.5998 25.7V23.1C17.5998 22.9896 17.5102 22.9 17.3998 22.9H14.5998Z" fill="#998EA4"/>
          <path d="M20.9998 12.2C20.9998 12.0895 21.0894 12 21.1998 12H23.9998C24.1103 12 24.1998 12.0895 24.1998 12.2V14.8C24.1998 14.9105 24.1103 15 23.9998 15H21.1998C21.0894 15 20.9998 14.9105 20.9998 14.8V12.2Z" fill="#998EA4"/>
          <path d="M21.1998 22.9C21.0894 22.9 20.9998 22.9896 20.9998 23.1V25.7C20.9998 25.8105 21.0894 25.9 21.1998 25.9H23.9998C24.1103 25.9 24.1998 25.8105 24.1998 25.7V23.1C24.1998 22.9896 24.1103 22.9 23.9998 22.9H21.1998Z" fill="#998EA4"/>
          <path d="M7.2 2C4.32812 2 2 4.32812 2 7.2V9H30V7.2C30 4.32812 27.6719 2 24.8 2H7.2Z" fill="#0084CE"/>
          <path d="M21.2 17.5C21.0895 17.5 21 17.5895 21 17.7V20.3C21 20.4105 21.0895 20.5 21.2 20.5H24C24.1105 20.5 24.2 20.4105 24.2 20.3V17.7C24.2 17.5895 24.1105 17.5 24 17.5H21.2Z" fill="#0084CE"/>
        </g>
      </g>
      <text id="ITEM_5_HEAD" x="500.0" y="728.0" text-anchor="start" font-weight="800" font-size="30" fill="var(--accent-1)" data-bg-id="ITEM_5_BG" fill-opacity="1.0" style="font-size: 30px; font-family: Inter, Segoe UI, Kalam, Roboto, Helvetica, Arial, sans-serif; font-weight: 700; letter-spacing:-0.4px;" data-final-font-size="30">
        <tspan x="500.0" dy="24.25px">Civilisational Shift</tspan>
      </text>
      <rect id="ITEM_5_HEAD_FRAME" x="500" y="728.0" width="760" height="32" fill="none"/>
      <text id="ITEM_5_BODY" x="500.0" y="766.0" text-anchor="start" font-size="24" fill="var(--primary-text)" data-bg-id="ITEM_5_BG" style="font-size: 26px; font-family: Inter, Segoe UI, Kalam, Roboto, Helvetica, Arial, sans-serif; font-weight: 400;" data-final-font-size="26">
        <tspan x="500.0" dy="29.22px">Major transformation of human society begins in 1994</tspan>
      </text>
      <rect id="ITEM_5_BODY_FRAME" x="500" y="766.0" width="860" height="72" fill="none"/>
      <text x="1460" y="752.0" text-anchor="end" font-size="18" font-weight="800" fill="var(--accent-5)" opacity="0.70">05</text>
    </g>
    <g filter="url(#svg0f232bd5-shadow)">
      <line x1="404.0" y1="910.0" x2="420.0" y2="910.0" stroke="var(--accent-6)" stroke-width="5" opacity="0.76" stroke-linecap="round"/>
      <rect id="ITEM_6_BG" x="420.0" y="844.0" width="1085" height="152" rx="22" fill="var(--panel)" fill-opacity="0.97" stroke="var(--accent-6)" stroke-width="2.5"/>
      <rect x="420.0" y="844.0" width="1085" height="152" rx="16" fill="url(#svg0f232bd5-universal-surface-sheen)" opacity="0.88"/>
      <rect x="420.0" y="844.0" width="14" height="132" rx="7" fill="var(--accent-6)" fill-opacity="0.90"/>
      <circle id="ITEM_6_PAD" cx="360" cy="910.0" r="46" fill="var(--icon-pad-bg)" opacity="0.95" fill-opacity="0.9" stroke-width="2" stroke="var(--primary-text)"/>
      <circle id="ITEM_6_PAD_INNER" cx="360" cy="910.0" r="35.88" fill="var(--accent-2)" fill-opacity="0.22"/>
      <circle cx="360" cy="910.0" r="38" fill="none" stroke="var(--accent-6)" stroke-width="3" stroke-dasharray="6 4"/>
      <g id="ITEM_6_ICON" transform="translate(324, 874.0)" data-icon-size="72" stroke-dasharray="6 4">
        <g transform="translate(-5.142857142857143,-4.500000000000004) scale(2.5714285714285716)">
          <path d="M25.0642 23.4047L23.9155 20.598L22.2011 21.2996L23.3511 24.1097L23.3525 24.113C23.5183 24.5137 23.3281 24.9545 22.9426 25.1096L18.0368 27.1219L18.0342 27.123C17.6335 27.2888 17.1927 27.0987 17.0376 26.7132L15.8855 23.898L14.1711 24.5997L15.3202 27.4074C15.8659 28.7594 17.403 29.3881 18.741 28.8353L18.7425 28.8347L23.6372 26.8268C24.9889 26.281 25.6173 24.7444 25.065 23.4066L25.0642 23.4047ZM8 23.5L9.70824 26.7789C10.3282 27.4289 10.2982 28.4589 9.63824 29.0689C8.98824 29.6789 7.95824 29.6489 7.34824 28.9989L2.43824 23.7889C1.82824 23.1389 1.85824 22.1089 2.50824 21.4989C3.15824 20.8889 4.18824 20.9189 4.79824 21.5689L8 23.5Z" fill="#FFB02E"/>
          <path d="M29.2283 15.0788L17.6783 2.82884C16.4083 1.47884 14.1783 1.82887 13.3883 3.50887L4.79834 21.5689L9.76834 26.8389L28.3083 19.3288C30.0183 18.6388 30.4983 16.4288 29.2283 15.0788Z" fill="#F9C23C"/>
        </g>
      </g>
      <text id="ITEM_6_HEAD" x="500.0" y="862.0" text-anchor="start" font-weight="800" font-size="30" fill="var(--primary-text)" data-bg-id="ITEM_6_BG" fill-opacity="1.0" style="font-size: 30px; font-family: Inter, Segoe UI, Kalam, Roboto, Helvetica, Arial, sans-serif; font-weight: 700; letter-spacing:-0.4px;" data-final-font-size="30">
        <tspan x="500.0" dy="24.25px">Operational Roles</tspan>
      </text>
      <rect id="ITEM_6_HEAD_FRAME" x="500" y="862.0" width="760" height="32" fill="none"/>
      <text id="ITEM_6_BODY" x="500.0" y="900.0" text-anchor="start" font-size="24" fill="var(--primary-text)" data-bg-id="ITEM_6_BG" style="font-size: 26px; font-family: Inter, Segoe UI, Kalam, Roboto, Helvetica, Arial, sans-serif; font-weight: 400;" data-final-font-size="26">
        <tspan x="500.0" dy="29.22px">Followers serve as ambassadors and peacekeepers for humanity</tspan>
      </text>
      <rect id="ITEM_6_BODY_FRAME" x="500" y="900.0" width="860" height="72" fill="none"/>
      <text x="1460" y="886.0" text-anchor="end" font-size="18" font-weight="800" fill="var(--accent-6)" opacity="0.70">06</text>
    </g>
  </g>
</svg>
