<?xml version='1.0' encoding='utf-8'?>
<svg xmlns="http://www.w3.org/2000/svg" width="1920" height="1080" viewBox="0 0 1920 1080" data-theme="dark">
  <style>
        @font-face {
            font-family: 'Inter';
            src: url('assets/fonts/Inter-Regular.ttf') format('truetype');
            font-weight: 400;
            font-style: normal;
            font-display: swap;
        }
        @font-face {
            font-family: 'Inter';
            src: url('assets/fonts/Inter-Bold.ttf') format('truetype');
            font-weight: 600;
            font-style: normal;
            font-display: swap;
        }
        @font-face {
            font-family: 'Inter';
            src: url('assets/fonts/Inter-Bold.ttf') format('truetype');
            font-weight: 800;
            font-style: normal;
            font-display: swap;
        }
        
:root {
    --background: #0f172a;
    --panel: #1e293b;
    --primary-text: #f1f5f9;
    --muted-text: #94a3b8;
    --inverse-text: #0f172a;
    --border: #334155;
    --shadow-color: #000000;
    --icon-pad-bg: #1e293b;
    --art-glow: #7dd3fc;
    --art-glow-opacity: 0.18;
    --art-sheen: #ffffff;
    --art-sheen-opacity: 0.18;
    --art-shadow: #000000;
    --art-shadow-opacity: 0.28;
    --art-muted-line: #64748b;
    --art-panel-tint: #1e293b;
    --font-family: 'Inter', 'Segoe UI', 'Kalam', Roboto, Helvetica, Arial, sans-serif;
    --radius-xl: 16px;
    --font-family-headline: 'Inter', 'Segoe UI', 'Kalam', Roboto, Helvetica, Arial, sans-serif;
    --font-family-body: 'Inter', 'Segoe UI', 'Kalam', Roboto, Helvetica, Arial, sans-serif;
    --font-heading: 'Inter', 'Segoe UI', 'Kalam', Roboto, Helvetica, Arial, sans-serif;
    --font-body: 'Inter', 'Segoe UI', 'Kalam', Roboto, Helvetica, Arial, sans-serif;
    --font-size-h1: 56px;
    --font-size-h2: 40px;
    --font-size-h3: 28px;
    --font-size-body: 24px;
    --font-size-caption: 18px;
    --secondary-text: var(--muted-text);
    --panel-border: var(--border);
    --font-weight-normal: 400;
    --font-weight-medium: 500;
    --font-weight-semibold: 600;
    --font-weight-bold: 700;
    --spacing-gutter-pct: 0.07;
    --spacing-top-pct: 0.15;
    --spacing-bottom-pct: 0.07;
    --spacing-title-y-pct: 0.055;
    --accent-1: #22d3ee;
    --accent-2: #38bdf8;
    --accent-3: #60a5fa;
    --accent-4: #818cf8;
    --accent-5: #a78bfa;
    --accent-6: #2dd4bf;
}
:root[data-theme="dark"] {
    --background: #0f172a;
    --panel: #1e293b;
    --primary-text: #f1f5f9;
    --muted-text: #94a3b8;
    --inverse-text: #0f172a;
    --border: #334155;
    --shadow-color: #000000;
    --icon-pad-bg: #1e293b;
    --art-glow: #7dd3fc;
    --art-glow-opacity: 0.18;
    --art-sheen: #ffffff;
    --art-sheen-opacity: 0.18;
    --art-shadow: #000000;
    --art-shadow-opacity: 0.28;
    --art-muted-line: #64748b;
    --art-panel-tint: #1e293b;
    --accent-1: #22d3ee;
    --accent-2: #38bdf8;
    --accent-3: #60a5fa;
    --accent-4: #818cf8;
    --accent-5: #a78bfa;
    --accent-6: #2dd4bf;
}
:root[data-theme="light"] {
    --background: #f8fafc;
    --panel: #ffffff;
    --primary-text: #0f172a;
    --muted-text: #64748b;
    --inverse-text: #ffffff;
    --border: #e2e8f0;
    --shadow-color: #000000;
    --icon-pad-bg: #1e293b;
    --art-glow: #0891b2;
    --art-glow-opacity: 0.10;
    --art-sheen: #ffffff;
    --art-sheen-opacity: 0.34;
    --art-shadow: #0f172a;
    --art-shadow-opacity: 0.14;
    --art-muted-line: #94a3b8;
    --art-panel-tint: #f1f5f9;
    --accent-1: #0891b2;
    --accent-2: #0284c7;
    --accent-3: #2563eb;
    --accent-4: #4f46e5;
    --accent-5: #7c3aed;
    --accent-6: #0d9488;
}</style>
  <rect x="0" y="0" width="1.92E+3" height="1.08E+3" fill="#252a34" stroke="none" id="programmatic_background"/>
  <line id="HEADER_DECOR" x1="960.0" x2="1080.0" y1="135.0" y2="135.0" stroke="var(--accent-1)" stroke-width="6" stroke-linecap="round"/>
  <defs>
    <pattern id="svgc59299d2-napkin-hatch" patternUnits="userSpaceOnUse" width="12" height="12">
      <path d="M -3 12 L 12 -3 M 0 15 L 15 0" fill="none" stroke="var(--primary-text)" stroke-width="1" stroke-opacity="0.04"/>
    </pattern>
    <filter id="svgc59299d2-soft-shadow" x="-30%" y="-30%" width="160%" height="160%">
      <feDropShadow dx="0" dy="4" stdDeviation="8" flood-color="#000000" flood-opacity="0.18"/>
    </filter>
    <radialGradient id="svgc59299d2-universal-edge-vignette" cx="50%" cy="50%" r="72%">
      <stop offset="0%" stop-color="var(--background)" stop-opacity="0"/>
      <stop offset="72%" stop-color="var(--background)" stop-opacity="0.12"/>
      <stop offset="100%" stop-color="var(--primary-text)" stop-opacity="0.08"/>
    </radialGradient>
    <linearGradient id="svgc59299d2-universal-surface-sheen" x1="0%" y1="0%" x2="100%" y2="100%">
      <stop offset="0%" stop-color="var(--art-sheen)" stop-opacity="var(--art-sheen-opacity)"/>
      <stop offset="46%" stop-color="var(--art-sheen)" stop-opacity="0.035"/>
      <stop offset="100%" stop-color="var(--art-panel-tint)" stop-opacity="0.14"/>
    </linearGradient>
    <radialGradient id="svgc59299d2-universal-icon-aura" cx="50%" cy="42%" r="64%">
      <stop offset="0%" stop-color="var(--art-glow)" stop-opacity="var(--art-glow-opacity)"/>
      <stop offset="100%" stop-color="var(--background)" stop-opacity="0"/>
    </radialGradient>
    <linearGradient id="svgc59299d2-tug-rope-sheen" x1="0%" y1="0%" x2="100%" y2="0%">
      <stop offset="0%" stop-color="var(--background)" stop-opacity="0"/>
      <stop offset="50%" stop-color="var(--inverse-text)" stop-opacity="0.16"/>
      <stop offset="100%" stop-color="var(--background)" stop-opacity="0"/>
    </linearGradient>
    <filter id="svgc59299d2-text-glow" x="-20%" y="-20%" width="140%" height="140%">
      <feDropShadow dx="0" dy="0" stdDeviation="2" flood-color="#000000" flood-opacity="0.4"/>
    </filter>
    <filter id="svgc59299d2-shadow" x="-30%" y="-30%" width="160%" height="160%">
      <feDropShadow dx="0" dy="2" stdDeviation="3" flood-color="#000000" flood-opacity="0.08"/>
      <feDropShadow dx="0" dy="6" stdDeviation="10" flood-color="#000000" flood-opacity="0.12"/>
    </filter>
    <marker id="svgc59299d2-arrowhead" markerWidth="10" markerHeight="7" refX="9" refY="3.5" orient="auto" markerUnits="strokeWidth">
      <polygon points="0 0, 10 3.5, 0 7" fill="var(--muted-text)" opacity="0.6"/>
    </marker>
  </defs>
  <rect id="CANVAS_BG" width="100%" height="100%" fill="var(--background)"/>
  <rect width="100%" height="100%" fill="url(#svgc59299d2-napkin-hatch)"/>
  <rect id="UNIVERSAL_EDGE_VIGNETTE" width="100%" height="100%" fill="url(#svgc59299d2-universal-edge-vignette)" opacity="0.62"/>
  <text id="TITLE" x="960.0" y="59" text-anchor="middle" font-size="56" font-weight="800" fill="#f1f5f9" style="font-size: 60px; font-family: Inter, Segoe UI, Kalam, Roboto, Helvetica, Arial, sans-serif; font-weight: 700; letter-spacing:-1.2px;" data-final-font-size="60">
    <tspan x="960.0" dy="68.00px">Chen Tao Membership Attrition Factors</tspan>
  </text>
  <rect id="TITLE_FRAME" x="134" y="59" width="1652" height="103" fill="none"/>
  <ellipse cx="960" cy="332" rx="214" ry="60" fill="var(--panel)" fill-opacity="0.50" opacity="0.34"/>
  <path d="M 182 320 Q 616 302 934 332" fill="none" stroke="var(--primary-text)" stroke-width="16" stroke-linecap="round" opacity="0.10"/>
  <path d="M 1738 320 Q 1304 302 986 332" fill="none" stroke="var(--primary-text)" stroke-width="16" stroke-linecap="round" opacity="0.10"/>
  <path d="M 220 320 Q 618 306 936 332" fill="none" stroke="var(--muted-text)" stroke-width="8" stroke-linecap="round" opacity="0.88"/>
  <path d="M 1700 320 Q 1302 306 984 332" fill="none" stroke="var(--muted-text)" stroke-width="8" stroke-linecap="round" opacity="0.88"/>
  <circle cx="960" cy="332" r="24" fill="var(--panel)" fill-opacity="0.94" stroke="var(--primary-text)" stroke-width="3"/>
  <path d="M 960 308 L 982 332 L 960 356 L 938 332 Z" fill="var(--primary-text)"/>
  <path d="M 960 356 L 960 666" fill="none" stroke="var(--primary-text)" stroke-width="12" stroke-linecap="round" opacity="0.10"/>
  <path d="M 960 356 L 960 666" fill="none" stroke="var(--muted-text)" stroke-width="6" stroke-linecap="round" opacity="0.78"/>
  <ellipse cx="960" cy="690" rx="106" ry="36" fill="var(--panel)" fill-opacity="0.46" opacity="0.3"/>
  <path d="M 542 690 Q 746 678 928 690" fill="none" stroke="var(--primary-text)" stroke-width="14" stroke-linecap="round" opacity="0.10"/>
  <path d="M 1378 690 Q 1174 678 992 690" fill="none" stroke="var(--primary-text)" stroke-width="14" stroke-linecap="round" opacity="0.10"/>
  <path d="M 564 690 Q 752 680 928 690" fill="none" stroke="var(--muted-text)" stroke-width="7" stroke-linecap="round" opacity="0.86"/>
  <path d="M 1356 690 Q 1168 680 992 690" fill="none" stroke="var(--muted-text)" stroke-width="7" stroke-linecap="round" opacity="0.86"/>
  <circle cx="960" cy="690" r="18" fill="var(--panel)" fill-opacity="0.94" stroke="var(--primary-text)" stroke-width="3"/>
  <path d="M 818 336 L 530 360" fill="none" stroke="var(--muted-text)" stroke-width="3" stroke-linecap="round" opacity="0.72"/>
  <circle cx="530" cy="360" r="6" fill="var(--accent-1)"/>
  <g transform="translate(410, 390)" filter="url(#svgc59299d2-soft-shadow)">
    <path d="M 62 0 L 96 -30 L 146 -30 Q 156 -30 162 -18 L 174 0 Z" fill="var(--panel)" fill-opacity="0.95" stroke="var(--accent-1)" stroke-width="3"/>
    <rect id="ITEM_1_BG" x="-228" y="0" width="456" height="348" rx="24" fill="var(--panel)" fill-opacity="0.96" stroke="var(--accent-1)" stroke-width="3"/>
    <rect x="-184" y="14" width="344" height="8" rx="4" fill="var(--accent-1)" fill-opacity="0.42"/>
    <path d="M 76 28 L 184 28 L 160 322 L 84 322 Z" fill="var(--accent-1)" fill-opacity="0.07"/>
    <circle cx="0" cy="80" r="61" fill="url(#svgc59299d2-universal-icon-aura)" opacity="0.82"/>
    <circle id="ITEM_1_PAD" cx="0" cy="80" r="44" fill="var(--icon-pad-bg)" stroke="var(--primary-text)" opacity="0.92" fill-opacity="0.9" stroke-width="2"/>
    <circle id="ITEM_1_PAD_INNER" cx="0" cy="80" r="34.32" fill="var(--accent-2)" fill-opacity="0.22"/>
    <circle cx="0" cy="80" r="34" fill="none" stroke="var(--accent-1)" stroke-width="2.5" stroke-dasharray="5 4" opacity="0.82"/>
    <g id="ITEM_1_ICON" transform="translate(-33, 46)" data-icon-size="66" stroke-dasharray="5 4">
      <g transform="translate(-5.8757522123893775,-6.179469026548673) scale(2.429734513274336)">
        <path d="M10.3535 3.06063C10.1582 2.86537 10.1582 2.54879 10.3535 2.35352C10.5487 2.15826 10.8653 2.15826 11.0606 2.35352L14.9497 6.24261L14.2426 6.94972L10.3535 3.06063Z" fill="#636363"/>
        <path d="M18.889 2.35348C19.0842 2.15822 19.4008 2.15822 19.5961 2.35348C19.7914 2.54874 19.7914 2.86532 19.5961 3.06058L15.707 6.94967L14.9999 6.24257L18.889 2.35348Z" fill="#636363"/>
        <path d="M11.0002 23.5L8.00024 23L6.46544 28.7279C6.31248 29.2987 6.65125 29.8855 7.22209 30.0385C7.73725 30.1765 8.2754 29.9141 8.48393 29.4232L11.0002 23.5Z" fill="#636363"/>
        <path d="M21.0002 23.5L24.0002 23L25.535 28.7279C25.688 29.2987 25.3492 29.8855 24.7784 30.0385C24.2632 30.1765 23.7251 29.9141 23.5165 29.4232L21.0002 23.5Z" fill="#636363"/>
        <path d="M3 9C3 7.34315 4.34315 6 6 6H26C27.6569 6 29 7.34315 29 9V22C29 23.6569 27.6569 25 26 25H6C4.34315 25 3 23.6569 3 22V9Z" fill="#9B9B9B"/>
        <circle cx="25.75" cy="13.25" r="1.25" fill="#CA0B4A"/>
        <circle cx="25.75" cy="9.25" r="1.25" fill="#636363"/>
        <path d="M6.5 11.5C6.5 10.3954 7.39543 9.5 8.5 9.5H20.5C21.6046 9.5 22.5 10.3954 22.5 11.5V19.5C22.5 20.6046 21.6046 21.5 20.5 21.5H8.5C7.39543 21.5 6.5 20.6046 6.5 19.5V11.5Z" fill="#83CBFF"/>
        <path d="M21 10C21.5523 10 22 10.4477 22 11V20C22 20.5523 21.5523 21 21 21H8C7.44772 21 7 20.5523 7 20V11C7 10.4477 7.44772 10 8 10H21ZM8 9C6.89543 9 6 9.89543 6 11V20C6 21.1046 6.89543 22 8 22H21C22.1046 22 23 21.1046 23 20V11C23 9.89543 22.1046 9 21 9H8Z" fill="#321B41"/>
      </g>
    </g>
    <text id="ITEM_1_HEAD" x="0.0" y="138.0" text-anchor="middle" font-size="40" font-weight="800" fill="var(--accent-2)" data-bg-id="ITEM_1_BG" data-max-lines="3" data-min-font-size="14" fill-opacity="1.0" stroke="none" style="font-size: 30px; font-family: Inter, Segoe UI, Kalam, Roboto, Helvetica, Arial, sans-serif; font-weight: 700; letter-spacing:-0.4px;" data-final-font-size="30">
      <tspan x="0.0" dy="47.01px">Prophetic Failure</tspan>
    </text>
    <rect id="ITEM_1_HEAD_FRAME" x="-194" y="138" width="388" height="68" fill="none"/>
    <text id="ITEM_1_BODY" x="0.0" y="202.0" text-anchor="middle" font-size="24" fill="var(--primary-text)" data-bg-id="ITEM_1_BG" style="font-size: 26px; font-family: Inter, Segoe UI, Kalam, Roboto, Helvetica, Arial, sans-serif; font-weight: 400;" data-final-font-size="26">
      <tspan x="0.0" dy="36.15px">Failed March 1998 predictions</tspan>
      <tspan x="0.0" dy="29.90px">triggered initial doubt</tspan>
      <tspan x="0.0" dy="29.90px">among followers</tspan>
    </text>
    <rect id="ITEM_1_BODY_FRAME" x="-214" y="202" width="428" height="146" fill="none"/>
  </g>
  <path d="M 960 356 L 960 342" fill="none" stroke="var(--muted-text)" stroke-width="3" stroke-linecap="round" opacity="0.72"/>
  <circle cx="960" cy="342" r="6" fill="var(--accent-2)"/>
  <g transform="translate(960, 372)" filter="url(#svgc59299d2-soft-shadow)">
    <path d="M -46 0 L -16 -30 L 16 -30 L 46 0 Z" fill="var(--panel)" fill-opacity="0.95" stroke="var(--accent-2)" stroke-width="3"/>
    <rect id="ITEM_2_BG" x="-228" y="0" width="456" height="348" rx="24" fill="var(--panel)" fill-opacity="0.96" stroke="var(--accent-2)" stroke-width="3"/>
    <rect x="-160" y="14" width="320" height="8" rx="4" fill="var(--accent-2)" fill-opacity="0.42"/>
    <path d="M -70 28 L 70 28 L 104 320 L -104 320 Z" fill="var(--accent-2)" fill-opacity="0.05"/>
    <circle cx="0" cy="80" r="61" fill="url(#svgc59299d2-universal-icon-aura)" opacity="0.82"/>
    <circle id="ITEM_2_PAD" cx="0" cy="80" r="44" fill="var(--icon-pad-bg)" stroke="var(--primary-text)" opacity="0.92" fill-opacity="0.9" stroke-width="2"/>
    <circle id="ITEM_2_PAD_INNER" cx="0" cy="80" r="34.32" fill="var(--accent-3)" fill-opacity="0.22"/>
    <circle cx="0" cy="80" r="34" fill="none" stroke="var(--accent-2)" stroke-width="2.5" stroke-dasharray="5 4" opacity="0.82"/>
    <g id="ITEM_2_ICON" transform="translate(-33, 46)" data-icon-size="66" stroke-dasharray="5 4">
      <g transform="translate(-1.320000000000002,-1.3200000000000003) scale(4.902857142857143)" vector-effect="non-scaling-stroke" stroke-width="2.50" stroke-linecap="round" stroke-linejoin="round" stroke-opacity="1.0">
        <path id="Subtract" fill="none" fill-rule="evenodd" d="M2.5 0.5h9c0.5523 0 1 0.447715 1 1v11c0 0.5523 -0.4477 1 -1 1h-9c-0.55228 0 -1 -0.4477 -1 -1v-11c0 -0.552285 0.44772 -1 1 -1ZM10 6c0 1.65685 -1.34315 3 -3 3S4 7.65685 4 6s1.34315 -3 3 -3 3 1.34315 3 3Z" clip-rule="evenodd" vector-effect="non-scaling-stroke" stroke="#f1f5f9"/>
        <path id="Vector" fill="none" d="M7 9c1.65685 0 3 -1.34315 3 -3S8.65685 3 7 3 4 4.34315 4 6s1.34315 3 3 3Z" vector-effect="non-scaling-stroke" stroke="#f1f5f9"/>
        <path id="Vector_2" stroke="#f1f5f9" d="M7 9c1.65685 0 3 -1.34315 3 -3S8.65685 3 7 3 4 4.34315 4 6s1.34315 3 3 3Z" vector-effect="non-scaling-stroke" fill="none"/>
        <path id="Vector_3" stroke="#f1f5f9" d="M11.5 0.5h-9c-0.55228 0 -1 0.447715 -1 1v11c0 0.5523 0.44772 1 1 1h9c0.5523 0 1 -0.4477 1 -1v-11c0 -0.552285 -0.4477 -1 -1 -1Z" vector-effect="non-scaling-stroke" fill="none"/>
        <path id="Vector_4" stroke="#f1f5f9" d="M4 6h6" vector-effect="non-scaling-stroke" fill="none"/>
        <path id="Vector_5" stroke="#f1f5f9" d="M7 9V3" vector-effect="non-scaling-stroke" fill="none"/>
      </g>
    </g>
    <text id="ITEM_2_HEAD" x="0.0" y="138.0" text-anchor="middle" font-size="40" font-weight="800" fill="var(--accent-3)" data-bg-id="ITEM_2_BG" data-max-lines="3" data-min-font-size="14" fill-opacity="1.0" stroke="none" style="font-size: 30px; font-family: Inter, Segoe UI, Kalam, Roboto, Helvetica, Arial, sans-serif; font-weight: 700; letter-spacing:-0.4px;" data-final-font-size="30">
      <tspan x="0.0" dy="47.01px">Visa Expiration</tspan>
    </text>
    <rect id="ITEM_2_HEAD_FRAME" x="-194" y="138" width="388" height="68" fill="none"/>
    <text id="ITEM_2_BODY" x="0.0" y="202.0" text-anchor="middle" font-size="24" fill="var(--primary-text)" data-bg-id="ITEM_2_BG" style="font-size: 26px; font-family: Inter, Segoe UI, Kalam, Roboto, Helvetica, Arial, sans-serif; font-weight: 400;" data-final-font-size="26">
      <tspan x="0.0" dy="42.13px">Immigration deadlines forced members</tspan>
      <tspan x="0.0" dy="29.90px">to choose between staying or leaving</tspan>
    </text>
    <rect id="ITEM_2_BODY_FRAME" x="-214" y="202" width="428" height="146" fill="none"/>
  </g>
  <path d="M 1102 336 L 1390 360" fill="none" stroke="var(--muted-text)" stroke-width="3" stroke-linecap="round" opacity="0.72"/>
  <circle cx="1390" cy="360" r="6" fill="var(--accent-3)"/>
  <g transform="translate(1510, 390)" filter="url(#svgc59299d2-soft-shadow)">
    <path d="M -62 0 L -96 -30 L -146 -30 Q -156 -30 -162 -18 L -174 0 Z" fill="var(--panel)" fill-opacity="0.95" stroke="var(--accent-3)" stroke-width="3"/>
    <rect id="ITEM_3_BG" x="-228" y="0" width="456" height="348" rx="24" fill="var(--panel)" fill-opacity="0.96" stroke="var(--accent-3)" stroke-width="3"/>
    <rect x="-160" y="14" width="344" height="8" rx="4" fill="var(--accent-3)" fill-opacity="0.42"/>
    <path d="M -76 28 L -184 28 L -160 322 L -84 322 Z" fill="var(--accent-3)" fill-opacity="0.07"/>
    <circle cx="0" cy="80" r="61" fill="url(#svgc59299d2-universal-icon-aura)" opacity="0.82"/>
    <circle id="ITEM_3_PAD" cx="0" cy="80" r="44" fill="var(--icon-pad-bg)" stroke="var(--primary-text)" opacity="0.92" fill-opacity="0.9" stroke-width="2"/>
    <circle id="ITEM_3_PAD_INNER" cx="0" cy="80" r="34.32" fill="var(--accent-4)" fill-opacity="0.22"/>
    <circle cx="0" cy="80" r="34" fill="none" stroke="var(--accent-3)" stroke-width="2.5" stroke-dasharray="5 4" opacity="0.82"/>
    <g id="ITEM_3_ICON" transform="translate(-33, 46)" data-icon-size="66" stroke-dasharray="5 4">
      <g transform="translate(-6.222857142857143,-8.674285714285716) scale(2.4514285714285715)" vector-effect="non-scaling-stroke" fill="#f1f5f9" fill-opacity="1.0" stroke="none">
        <path fill="#f1f5f9" d="m29.81 16l-7-9.56A1 1 0 0 0 22 6H3a1 1 0 0 0-1 1v17a1 1 0 0 0 1 1h2.14a4 4 0 0 0 7.72 0h6.28a4 4 0 0 0 7.72 0H29a1 1 0 0 0 1-1v-7.44a1 1 0 0 0-.19-.56M20 8h1.49l5.13 7H20ZM9 26a2 2 0 1 1 2-2a2 2 0 0 1-2 2m14 0a2 2 0 1 1 2-2a2 2 0 0 1-2 2m5-3h-1.14a4 4 0 0 0-7.72 0h-6.28a4 4 0 0 0-7.72 0H4V8h14v9h10Z" vector-effect="non-scaling-stroke" stroke="none"/>
      </g>
    </g>
    <text id="ITEM_3_HEAD" x="0.0" y="138.0" text-anchor="middle" font-size="40" font-weight="800" fill="var(--accent-4)" data-bg-id="ITEM_3_BG" data-max-lines="3" data-min-font-size="14" fill-opacity="1.0" stroke="none" style="font-size: 30px; font-family: Inter, Segoe UI, Kalam, Roboto, Helvetica, Arial, sans-serif; font-weight: 700; letter-spacing:-0.4px;" data-final-font-size="30">
      <tspan x="0.0" dy="47.01px">Relocation Costs</tspan>
    </text>
    <rect id="ITEM_3_HEAD_FRAME" x="-194" y="138" width="388" height="68" fill="none"/>
    <text id="ITEM_3_BODY" x="0.0" y="202.0" text-anchor="middle" font-size="24" fill="var(--primary-text)" data-bg-id="ITEM_3_BG" style="font-size: 26px; font-family: Inter, Segoe UI, Kalam, Roboto, Helvetica, Arial, sans-serif; font-weight: 400;" data-final-font-size="26">
      <tspan x="0.0" dy="42.13px">High expenses for moving to New York</tspan>
      <tspan x="0.0" dy="29.90px">limited group size</tspan>
    </text>
    <rect id="ITEM_3_BODY_FRAME" x="-214" y="202" width="428" height="146" fill="none"/>
  </g>
  <path d="M 930 690 L 810 696" fill="none" stroke="var(--muted-text)" stroke-width="3" stroke-linecap="round" opacity="0.72"/>
  <circle cx="810" cy="696" r="6" fill="var(--accent-4)"/>
  <g transform="translate(690, 700)" filter="url(#svgc59299d2-soft-shadow)">
    <path d="M 62 0 L 96 -30 L 146 -30 Q 156 -30 162 -18 L 174 0 Z" fill="var(--panel)" fill-opacity="0.95" stroke="var(--accent-4)" stroke-width="3"/>
    <rect id="ITEM_4_BG" x="-228" y="0" width="456" height="348" rx="24" fill="var(--panel)" fill-opacity="0.96" stroke="var(--accent-4)" stroke-width="3"/>
    <rect x="-184" y="14" width="344" height="8" rx="4" fill="var(--accent-4)" fill-opacity="0.42"/>
    <path d="M 76 28 L 184 28 L 160 322 L 84 322 Z" fill="var(--accent-4)" fill-opacity="0.07"/>
    <circle cx="0" cy="80" r="61" fill="url(#svgc59299d2-universal-icon-aura)" opacity="0.82"/>
    <circle id="ITEM_4_PAD" cx="0" cy="80" r="44" fill="var(--icon-pad-bg)" stroke="var(--primary-text)" opacity="0.92" fill-opacity="0.9" stroke-width="2"/>
    <circle id="ITEM_4_PAD_INNER" cx="0" cy="80" r="34.32" fill="var(--accent-5)" fill-opacity="0.22"/>
    <circle cx="0" cy="80" r="34" fill="none" stroke="var(--accent-4)" stroke-width="2.5" stroke-dasharray="5 4" opacity="0.82"/>
    <g id="ITEM_4_ICON" transform="translate(-33, 46)" data-icon-size="66" stroke-dasharray="5 4">
      <g transform="translate(-4.870344827586207,-4.870344827586207) scale(0.14793103448275863)" vector-effect="non-scaling-stroke" fill="#f1f5f9" fill-opacity="1.0" stroke="none">
        <path fill="#f1f5f9" d="m55.379 25l-28.4 142H172.27L256 83.271L339.729 167H485.02l-28.4-142zM256 108.727L179.729 185H41v302h158v-87c0-18.25 7.166-33.077 18.021-42.727S242 343 256 343s28.123 4.624 38.979 14.273S313 381.75 313 400v87h158V185H332.271zm0 38.544l57 57V297H199v-92.729zm0 25.456l-39 39V279h78v-67.271zM71 199h98v98H71zm272 0h98v98h-98zM89 217v30h62v-30zm272 0v30h62v-30zM89 265v14h62v-14zm272 0v14h62v-14zM71 359h98v98H71zm272 0h98v98h-98zm-87 2c-10 0-19.877 3.376-27.021 9.727C221.834 377.077 217 386.25 217 400v87h78v-87c0-13.75-4.834-22.923-11.979-29.273S266 361 256 361M89 377v62h62v-62zm272 0v62h62v-62z" vector-effect="non-scaling-stroke" stroke="none"/>
      </g>
    </g>
    <text id="ITEM_4_HEAD" x="0.0" y="138.0" text-anchor="middle" font-size="40" font-weight="800" fill="var(--accent-5)" data-bg-id="ITEM_4_BG" data-max-lines="3" data-min-font-size="14" fill-opacity="1.0" stroke="none" style="font-size: 30px; font-family: Inter, Segoe UI, Kalam, Roboto, Helvetica, Arial, sans-serif; font-weight: 700; letter-spacing:-0.4px;" data-final-font-size="30">
      <tspan x="0.0" dy="47.01px">Family Obligations</tspan>
    </text>
    <rect id="ITEM_4_HEAD_FRAME" x="-194" y="138" width="388" height="68" fill="none"/>
    <text id="ITEM_4_BODY" x="0.0" y="202.0" text-anchor="middle" font-size="24" fill="var(--primary-text)" data-bg-id="ITEM_4_BG" style="font-size: 26px; font-family: Inter, Segoe UI, Kalam, Roboto, Helvetica, Arial, sans-serif; font-weight: 400;" data-final-font-size="26">
      <tspan x="0.0" dy="42.13px">Personal ties and family needs</tspan>
      <tspan x="0.0" dy="29.90px">pressured members to return home</tspan>
    </text>
    <rect id="ITEM_4_BODY_FRAME" x="-214" y="202" width="428" height="146" fill="none"/>
  </g>
  <path d="M 990 690 L 1110 696" fill="none" stroke="var(--muted-text)" stroke-width="3" stroke-linecap="round" opacity="0.72"/>
  <circle cx="1110" cy="696" r="6" fill="var(--accent-5)"/>
  <g transform="translate(1230, 700)" filter="url(#svgc59299d2-soft-shadow)">
    <path d="M -62 0 L -96 -30 L -146 -30 Q -156 -30 -162 -18 L -174 0 Z" fill="var(--panel)" fill-opacity="0.95" stroke="var(--accent-5)" stroke-width="3"/>
    <rect id="ITEM_5_BG" x="-228" y="0" width="456" height="348" rx="24" fill="var(--panel)" fill-opacity="0.96" stroke="var(--accent-5)" stroke-width="3"/>
    <rect x="-160" y="14" width="344" height="8" rx="4" fill="var(--accent-5)" fill-opacity="0.42"/>
    <path d="M -76 28 L -184 28 L -160 322 L -84 322 Z" fill="var(--accent-5)" fill-opacity="0.07"/>
    <circle cx="0" cy="80" r="61" fill="url(#svgc59299d2-universal-icon-aura)" opacity="0.82"/>
    <circle id="ITEM_5_PAD" cx="0" cy="80" r="44" fill="var(--icon-pad-bg)" stroke="var(--primary-text)" opacity="0.92" fill-opacity="0.9" stroke-width="2"/>
    <circle id="ITEM_5_PAD_INNER" cx="0" cy="80" r="34.32" fill="var(--accent-6)" fill-opacity="0.22"/>
    <circle cx="0" cy="80" r="34" fill="none" stroke="var(--accent-5)" stroke-width="2.5" stroke-dasharray="5 4" opacity="0.82"/>
    <g id="ITEM_5_ICON" transform="translate(-33, 46)" data-icon-size="66" stroke-dasharray="5 4">
      <g transform="translate(-6.222857142857143,-9.9) scale(2.4514285714285715)">
        <path d="M2 15H30V28C30 29.1046 29.1046 30 28 30H4C2.89543 30 2 29.1046 2 28V15Z" fill="#8C5543"/>
        <path d="M11.1 9H4C2.89543 9 2 9.89543 2 11V15C2 17.2091 3.79086 19 6 19H26C28.2091 19 30 17.2091 30 15V11C30 9.89543 29.1046 9 28 9H20.9C20.4367 6.71776 18.419 5 16 5C13.581 5 11.5633 6.71776 11.1 9ZM13.1707 9C13.5825 7.83481 14.6938 7 16 7C17.3062 7 18.4175 7.83481 18.8293 9H13.1707Z" fill="#6D4534"/>
        <path d="M13 19L16 18L19 19V21C19 21.5523 18.5523 22 18 22H14C13.4477 22 13 21.5523 13 21V19Z" fill="#D3883E"/>
        <path d="M13 18C13 17.4477 13.4477 17 14 17H18C18.5523 17 19 17.4477 19 18V19H13V18Z" fill="#E19747"/>
      </g>
    </g>
    <text id="ITEM_5_HEAD" x="0.0" y="138.0" text-anchor="middle" font-size="40" font-weight="800" fill="var(--accent-6)" data-bg-id="ITEM_5_BG" data-max-lines="3" data-min-font-size="14" fill-opacity="1.0" stroke="none" style="font-size: 30px; font-family: Inter, Segoe UI, Kalam, Roboto, Helvetica, Arial, sans-serif; font-weight: 700; letter-spacing:-0.4px;" data-final-font-size="30">
      <tspan x="0.0" dy="47.01px">Career Sacrifice</tspan>
    </text>
    <rect id="ITEM_5_HEAD_FRAME" x="-194" y="138" width="388" height="68" fill="none"/>
    <text id="ITEM_5_BODY" x="0.0" y="202.0" text-anchor="middle" font-size="24" fill="var(--primary-text)" data-bg-id="ITEM_5_BG" style="font-size: 26px; font-family: Inter, Segoe UI, Kalam, Roboto, Helvetica, Arial, sans-serif; font-weight: 400;" data-final-font-size="26">
      <tspan x="0.0" dy="42.13px">Loss of lucrative jobs in Taiwan</tspan>
      <tspan x="0.0" dy="29.90px">made staying difficult</tspan>
    </text>
    <rect id="ITEM_5_BODY_FRAME" x="-214" y="202" width="428" height="146" fill="none"/>
  </g>
</svg>
