<?xml version='1.0' encoding='utf-8'?>
<svg xmlns="http://www.w3.org/2000/svg" width="1920" height="1080" viewBox="0 0 1920 1080" data-theme="light">
  <style>
        @font-face {
            font-family: 'Inter';
            src: url('assets/fonts/Inter-Regular.ttf') format('truetype');
            font-weight: 400;
            font-style: normal;
            font-display: swap;
        }
        @font-face {
            font-family: 'Inter';
            src: url('assets/fonts/Inter-Bold.ttf') format('truetype');
            font-weight: 600;
            font-style: normal;
            font-display: swap;
        }
        @font-face {
            font-family: 'Inter';
            src: url('assets/fonts/Inter-Bold.ttf') format('truetype');
            font-weight: 800;
            font-style: normal;
            font-display: swap;
        }
        
:root {
    --background: #f8fafc;
    --panel: #ffffff;
    --primary-text: #0f172a;
    --muted-text: #64748b;
    --inverse-text: #ffffff;
    --border: #e2e8f0;
    --shadow-color: #000000;
    --icon-pad-bg: #1e293b;
    --art-glow: #0891b2;
    --art-glow-opacity: 0.10;
    --art-sheen: #ffffff;
    --art-sheen-opacity: 0.34;
    --art-shadow: #0f172a;
    --art-shadow-opacity: 0.14;
    --art-muted-line: #94a3b8;
    --art-panel-tint: #f1f5f9;
    --font-family: 'Inter', 'Segoe UI', 'Kalam', Roboto, Helvetica, Arial, sans-serif;
    --radius-xl: 16px;
    --font-family-headline: 'Inter', 'Segoe UI', 'Kalam', Roboto, Helvetica, Arial, sans-serif;
    --font-family-body: 'Inter', 'Segoe UI', 'Kalam', Roboto, Helvetica, Arial, sans-serif;
    --font-heading: 'Inter', 'Segoe UI', 'Kalam', Roboto, Helvetica, Arial, sans-serif;
    --font-body: 'Inter', 'Segoe UI', 'Kalam', Roboto, Helvetica, Arial, sans-serif;
    --font-size-h1: 56px;
    --font-size-h2: 40px;
    --font-size-h3: 28px;
    --font-size-body: 24px;
    --font-size-caption: 18px;
    --secondary-text: var(--muted-text);
    --panel-border: var(--border);
    --font-weight-normal: 400;
    --font-weight-medium: 500;
    --font-weight-semibold: 600;
    --font-weight-bold: 700;
    --spacing-gutter-pct: 0.07;
    --spacing-top-pct: 0.15;
    --spacing-bottom-pct: 0.07;
    --spacing-title-y-pct: 0.055;
    --accent-1: #2563eb;
    --accent-2: #16a34a;
    --accent-3: #ea580c;
    --accent-4: #7c3aed;
    --accent-5: #0284c7;
    --accent-6: #475569;
}
:root[data-theme="dark"] {
    --background: #0f172a;
    --panel: #1e293b;
    --primary-text: #f1f5f9;
    --muted-text: #94a3b8;
    --inverse-text: #0f172a;
    --border: #334155;
    --shadow-color: #000000;
    --icon-pad-bg: #1e293b;
    --art-glow: #7dd3fc;
    --art-glow-opacity: 0.18;
    --art-sheen: #ffffff;
    --art-sheen-opacity: 0.18;
    --art-shadow: #000000;
    --art-shadow-opacity: 0.28;
    --art-muted-line: #64748b;
    --art-panel-tint: #1e293b;
    --accent-1: #60a5fa;
    --accent-2: #4ade80;
    --accent-3: #f97316;
    --accent-4: #a78bfa;
    --accent-5: #38bdf8;
    --accent-6: #94a3b8;
}
:root[data-theme="light"] {
    --background: #f8fafc;
    --panel: #ffffff;
    --primary-text: #0f172a;
    --muted-text: #64748b;
    --inverse-text: #ffffff;
    --border: #e2e8f0;
    --shadow-color: #000000;
    --icon-pad-bg: #1e293b;
    --art-glow: #0891b2;
    --art-glow-opacity: 0.10;
    --art-sheen: #ffffff;
    --art-sheen-opacity: 0.34;
    --art-shadow: #0f172a;
    --art-shadow-opacity: 0.14;
    --art-muted-line: #94a3b8;
    --art-panel-tint: #f1f5f9;
    --accent-1: #2563eb;
    --accent-2: #16a34a;
    --accent-3: #ea580c;
    --accent-4: #7c3aed;
    --accent-5: #0284c7;
    --accent-6: #475569;
}</style>
  <rect x="0" y="0" width="1.92E+3" height="1.08E+3" fill="#252a34" stroke="none" id="programmatic_background"/>
  <line id="HEADER_DECOR" x1="960.0" x2="1080.0" y1="135.0" y2="135.0" stroke="var(--accent-1)" stroke-width="6" stroke-linecap="round"/>
  <defs>
    <pattern id="svg929bd328-napkin-hatch" patternUnits="userSpaceOnUse" width="12" height="12">
      <path d="M -3 12 L 12 -3 M 0 15 L 15 0" fill="none" stroke="var(--primary-text)" stroke-width="1" stroke-opacity="0.05"/>
    </pattern>
    <filter id="svg929bd328-shadow" x="-30%" y="-30%" width="160%" height="160%">
      <feDropShadow dx="0" dy="2" stdDeviation="3" flood-color="#000000" flood-opacity="0.08"/>
      <feDropShadow dx="0" dy="6" stdDeviation="10" flood-color="#000000" flood-opacity="0.12"/>
    </filter>
    <radialGradient id="svg929bd328-universal-edge-vignette" cx="50%" cy="50%" r="72%">
      <stop offset="0%" stop-color="var(--background)" stop-opacity="0"/>
      <stop offset="72%" stop-color="var(--background)" stop-opacity="0.12"/>
      <stop offset="100%" stop-color="var(--primary-text)" stop-opacity="0.08"/>
    </radialGradient>
    <linearGradient id="svg929bd328-universal-surface-sheen" x1="0%" y1="0%" x2="100%" y2="100%">
      <stop offset="0%" stop-color="var(--art-sheen)" stop-opacity="var(--art-sheen-opacity)"/>
      <stop offset="46%" stop-color="var(--art-sheen)" stop-opacity="0.035"/>
      <stop offset="100%" stop-color="var(--art-panel-tint)" stop-opacity="0.14"/>
    </linearGradient>
    <radialGradient id="svg929bd328-universal-icon-aura" cx="50%" cy="42%" r="64%">
      <stop offset="0%" stop-color="var(--art-glow)" stop-opacity="var(--art-glow-opacity)"/>
      <stop offset="100%" stop-color="var(--background)" stop-opacity="0"/>
    </radialGradient>
    <linearGradient id="svg929bd328-fact-card-sheen" x1="0%" y1="0%" x2="100%" y2="100%">
      <stop offset="0%" stop-color="var(--inverse-text)" stop-opacity="0.18"/>
      <stop offset="54%" stop-color="var(--inverse-text)" stop-opacity="0.04"/>
      <stop offset="100%" stop-color="var(--background)" stop-opacity="0.14"/>
    </linearGradient>
    <radialGradient id="svg929bd328-fact-icon-glow" cx="50%" cy="42%" r="62%">
      <stop offset="0%" stop-color="var(--inverse-text)" stop-opacity="0.22"/>
      <stop offset="100%" stop-color="var(--background)" stop-opacity="0"/>
    </radialGradient>
    <filter id="svg929bd328-text-glow" x="-20%" y="-20%" width="140%" height="140%">
      <feDropShadow dx="0" dy="0" stdDeviation="2" flood-color="#000000" flood-opacity="0.4"/>
    </filter>
    <marker id="svg929bd328-arrowhead" markerWidth="10" markerHeight="7" refX="9" refY="3.5" orient="auto" markerUnits="strokeWidth">
      <polygon points="0 0, 10 3.5, 0 7" fill="var(--muted-text)" opacity="0.6"/>
    </marker>
  </defs>
  <rect width="100%" height="100%" fill="var(--background)" id="CANVAS_BG"/>
  <rect width="100%" height="100%" fill="url(#svg929bd328-napkin-hatch)"/>
  <rect id="UNIVERSAL_EDGE_VIGNETTE" width="100%" height="100%" fill="url(#svg929bd328-universal-edge-vignette)" opacity="0.62"/>
  <line x1="960" y1="178" x2="960" y2="986" stroke="var(--muted-text)" stroke-width="5" stroke-opacity="0.10" stroke-linecap="round"/>
  <path d="M 360 178 C 620 152 1300 152 1560 178" fill="none" stroke="var(--primary-text)" stroke-width="2" stroke-opacity="0.12" stroke-linecap="round"/>
  <text id="TITLE" x="960.0" y="59" font-size="72" font-weight="800" fill="#0f172a" style="font-size: 60px; font-family: Inter, Segoe UI, Kalam, Roboto, Helvetica, Arial, sans-serif; font-weight: 700; letter-spacing:-1.2px;" text-anchor="middle" data-final-font-size="60">
    <tspan x="960.0" dy="68.00px">Prophecy Dynamics in UFO Religions</tspan>
  </text>
  <rect id="TITLE_FRAME" x="134" y="59" width="1652" height="103" fill="none"/>
  <g transform="translate(960.0, 255.0)">
    <rect id="ITEM_1_BG" x="-600" y="-40" width="1200" height="126" rx="24" fill="var(--accent-6)" stroke="var(--accent-1)" filter="url(#svg929bd328-shadow)" stroke-width="3" fill-opacity="1.0"/>
    <g transform="translate(-480.0, 0.0)">
      <circle r="45" fill="var(--background)" opacity="0.3"/>
      <circle id="ITEM_1_PAD" cx="0" cy="0" r="38" fill="var(--icon-pad-bg)" stroke="var(--primary-text)" opacity="0.9" fill-opacity="0.9" stroke-width="2"/>
      <circle id="ITEM_1_PAD_INNER" cx="0" cy="0" r="29.64" fill="var(--accent-6)" fill-opacity="0.22"/>
      <circle cx="0" cy="0" r="30" fill="none" stroke="var(--accent-1)" stroke-width="3" stroke-dasharray="6 4"/>
      <g id="ITEM_1_ICON" transform="translate(-31, -31)" data-icon-size="62" stroke-dasharray="6 4">
        <g transform="translate(-2.6271186440677967,-2.6271186440677967) scale(2.8022598870056497)" vector-effect="non-scaling-stroke" stroke-width="2.46" stroke-linecap="round" stroke-linejoin="round" stroke-opacity="1.0">
          <path d="M12 6v6l4 2" vector-effect="non-scaling-stroke" fill="none" stroke="#f1f5f9"/>
          <circle cx="12" cy="12" r="10" vector-effect="non-scaling-stroke" fill="none" stroke="#f1f5f9"/>
        </g>
      </g>
    </g>
    <g transform="translate(-330, -30)">
      <text id="ITEM_1_HEAD" text-anchor="start" font-weight="bold" font-size="27" fill="var(--inverse-text)" x="0.0" y="-10.0" data-bg-id="ITEM_1_BG" fill-opacity="1.0" style="font-size: 30px; font-family: Inter, Segoe UI, Kalam, Roboto, Helvetica, Arial, sans-serif; font-weight: 700; letter-spacing:-0.4px;" data-final-font-size="30">
        <tspan x="0.0" dy="27.25px">Concrete Prophecy</tspan>
      </text>
      <rect id="ITEM_1_HEAD_FRAME" x="0" y="-10" width="846" height="38" fill="none"/>
      <text id="ITEM_1_BODY" text-anchor="start" font-size="19" fill="var(--inverse-text)" x="0.0" y="20.0" data-bg-id="ITEM_1_BG" style="font-size: 26px; font-family: Inter, Segoe UI, Kalam, Roboto, Helvetica, Arial, sans-serif; font-weight: 400;" data-final-font-size="26">
        <tspan x="0.0" dy="29.62px">Fragile dates and physical landing expectations</tspan>
      </text>
      <rect id="ITEM_1_BODY_FRAME" x="0" y="20" width="846" height="74" fill="none"/>
    </g>
  </g>
  <g transform="translate(960.0, 390.0)">
    <rect id="ITEM_2_BG" x="-600" y="-40" width="1200" height="126" rx="24" fill="var(--accent-1)" stroke="var(--accent-2)" filter="url(#svg929bd328-shadow)" stroke-width="3" fill-opacity="1.0"/>
    <g transform="translate(-480.0, 0.0)">
      <circle r="45" fill="var(--background)" opacity="0.3"/>
      <circle id="ITEM_2_PAD" cx="0" cy="0" r="38" fill="var(--icon-pad-bg)" stroke="var(--primary-text)" opacity="0.9" fill-opacity="0.9" stroke-width="2"/>
      <circle id="ITEM_2_PAD_INNER" cx="0" cy="0" r="29.64" fill="var(--accent-1)" fill-opacity="0.22"/>
      <circle cx="0" cy="0" r="30" fill="none" stroke="var(--accent-1)" stroke-width="3" stroke-dasharray="6 4"/>
      <g id="ITEM_2_ICON" transform="translate(-31, -31)" data-icon-size="62" stroke-dasharray="6 4">
        <g transform="translate(-0.2440944881889795,-0.48818897637795633) scale(4.463442069741283)" vector-effect="non-scaling-stroke" stroke-width="2.46" stroke-linecap="round" stroke-linejoin="round" stroke-opacity="1.0">
          <path id="Vector 2461" fill="none" d="M6.646 0.854 1.354 6.146A0.5 0.5 0 0 0 1.707 7H3.5v6a0.5 0.5 0 0 0 0.5 0.5h6a0.5 0.5 0 0 0 0.5 -0.5V7h1.793a0.5 0.5 0 0 0 0.353 -0.854L7.354 0.854a0.5 0.5 0 0 0 -0.708 0Z" vector-effect="non-scaling-stroke" stroke="#f1f5f9"/>
          <path id="Vector 2460" stroke="#f1f5f9" d="M6.646 0.854 1.354 6.146A0.5 0.5 0 0 0 1.707 7H3.5v6a0.5 0.5 0 0 0 0.5 0.5h6a0.5 0.5 0 0 0 0.5 -0.5V7h1.793a0.5 0.5 0 0 0 0.353 -0.854L7.354 0.854a0.5 0.5 0 0 0 -0.708 0Z" vector-effect="non-scaling-stroke" fill="none"/>
        </g>
      </g>
    </g>
    <g transform="translate(-330, -30)">
      <text id="ITEM_2_HEAD" text-anchor="start" font-weight="bold" font-size="27" fill="var(--inverse-text)" x="0.0" y="-10.0" data-bg-id="ITEM_2_BG" fill-opacity="1.0" style="font-size: 30px; font-family: Inter, Segoe UI, Kalam, Roboto, Helvetica, Arial, sans-serif; font-weight: 700; letter-spacing:-0.4px;" data-final-font-size="30">
        <tspan x="0.0" dy="27.25px">Spiritualized Shift</tspan>
      </text>
      <rect id="ITEM_2_HEAD_FRAME" x="0" y="-10" width="846" height="38" fill="none"/>
      <text id="ITEM_2_BODY" text-anchor="start" font-size="19" fill="var(--inverse-text)" x="0.0" y="20.0" data-bg-id="ITEM_2_BG" style="font-size: 26px; font-family: Inter, Segoe UI, Kalam, Roboto, Helvetica, Arial, sans-serif; font-weight: 400;" data-final-font-size="26">
        <tspan x="0.0" dy="29.62px">Moving toward inner transformation and higher consciousness</tspan>
      </text>
      <rect id="ITEM_2_BODY_FRAME" x="0" y="20" width="846" height="74" fill="none"/>
    </g>
  </g>
  <g transform="translate(960.0, 525.0)">
    <rect id="ITEM_3_BG" x="-600" y="-40" width="1200" height="126" rx="24" fill="var(--accent-2)" stroke="var(--accent-3)" filter="url(#svg929bd328-shadow)" stroke-width="3" fill-opacity="1.0"/>
    <g transform="translate(-480.0, 0.0)">
      <circle r="45" fill="var(--background)" opacity="0.3"/>
      <circle id="ITEM_3_PAD" cx="0" cy="0" r="38" fill="var(--icon-pad-bg)" stroke="var(--primary-text)" opacity="0.9" fill-opacity="0.9" stroke-width="2"/>
      <circle id="ITEM_3_PAD_INNER" cx="0" cy="0" r="29.64" fill="var(--accent-2)" fill-opacity="0.22"/>
      <circle cx="0" cy="0" r="30" fill="none" stroke="var(--accent-2)" stroke-width="3" stroke-dasharray="6 4"/>
      <g id="ITEM_3_ICON" transform="translate(-31, -31)" data-icon-size="62" stroke-dasharray="6 4">
        <g transform="translate(-4.428571428571429,-3.8750000000000018) scale(2.2142857142857144)">
          <path d="M25.0642 23.4047L23.9155 20.598L22.2011 21.2996L23.3511 24.1097L23.3525 24.113C23.5183 24.5137 23.3281 24.9545 22.9426 25.1096L18.0368 27.1219L18.0342 27.123C17.6335 27.2888 17.1927 27.0987 17.0376 26.7132L15.8855 23.898L14.1711 24.5997L15.3202 27.4074C15.8659 28.7594 17.403 29.3881 18.741 28.8353L18.7425 28.8347L23.6372 26.8268C24.9889 26.281 25.6173 24.7444 25.065 23.4066L25.0642 23.4047ZM8 23.5L9.70824 26.7789C10.3282 27.4289 10.2982 28.4589 9.63824 29.0689C8.98824 29.6789 7.95824 29.6489 7.34824 28.9989L2.43824 23.7889C1.82824 23.1389 1.85824 22.1089 2.50824 21.4989C3.15824 20.8889 4.18824 20.9189 4.79824 21.5689L8 23.5Z" fill="#FFB02E"/>
          <path d="M29.2283 15.0788L17.6783 2.82884C16.4083 1.47884 14.1783 1.82887 13.3883 3.50887L4.79834 21.5689L9.76834 26.8389L28.3083 19.3288C30.0183 18.6388 30.4983 16.4288 29.2283 15.0788Z" fill="#F9C23C"/>
        </g>
      </g>
    </g>
    <g transform="translate(-330, -30)">
      <text id="ITEM_3_HEAD" text-anchor="start" font-weight="bold" font-size="27" fill="var(--primary-text)" x="0.0" y="-10.0" data-bg-id="ITEM_3_BG" fill-opacity="1.0" style="font-size: 30px; font-family: Inter, Segoe UI, Kalam, Roboto, Helvetica, Arial, sans-serif; font-weight: 700; letter-spacing:-0.4px;" data-final-font-size="30">
        <tspan x="0.0" dy="27.25px">Public Failure</tspan>
      </text>
      <rect id="ITEM_3_HEAD_FRAME" x="0" y="-10" width="846" height="38" fill="none"/>
      <text id="ITEM_3_BODY" text-anchor="start" font-size="19" fill="var(--primary-text)" x="0.0" y="20.0" data-bg-id="ITEM_3_BG" style="font-size: 26px; font-family: Inter, Segoe UI, Kalam, Roboto, Helvetica, Arial, sans-serif; font-weight: 400;" data-final-font-size="26">
        <tspan x="0.0" dy="29.62px">High visibility leads to immediate group shrinkage</tspan>
      </text>
      <rect id="ITEM_3_BODY_FRAME" x="0" y="20" width="846" height="74" fill="none"/>
    </g>
  </g>
  <g transform="translate(960.0, 660.0)">
    <rect id="ITEM_4_BG" x="-600" y="-40" width="1200" height="126" rx="24" fill="var(--accent-3)" stroke="var(--accent-4)" filter="url(#svg929bd328-shadow)" stroke-width="3" fill-opacity="1.0"/>
    <g transform="translate(-480.0, 0.0)">
      <circle r="45" fill="var(--background)" opacity="0.3"/>
      <circle id="ITEM_4_PAD" cx="0" cy="0" r="38" fill="var(--icon-pad-bg)" stroke="var(--primary-text)" opacity="0.9" fill-opacity="0.9" stroke-width="2"/>
      <circle id="ITEM_4_PAD_INNER" cx="0" cy="0" r="29.64" fill="var(--accent-3)" fill-opacity="0.22"/>
      <circle cx="0" cy="0" r="30" fill="none" stroke="var(--accent-3)" stroke-width="3" stroke-dasharray="6 4"/>
      <g id="ITEM_4_ICON" transform="translate(-31, -31)" data-icon-size="62" stroke-dasharray="6 4">
        <g transform="translate(-2.0666666666666704,-2.0666666666666704) scale(0.12916666666666668)" vector-effect="non-scaling-stroke" fill="#f1f5f9" fill-opacity="1.0" stroke="none">
          <path fill="#f1f5f9" d="M16.375 17.22v94.28l20.47 14.25l6.374-32.063l50.468 33.22L71.844 37.03l29.53 14.032L91.22 17.22H16.374zm119.72 0l19.843 42.03l-42.032 46.72H155l4.656 39.718L180.686 120l10.408 61.938l38.75-56.72l25.22 32.657l24.186-91.156l33.78 21.124l.595-50.78l47.656 24.436l-3.03 67.5l28.438-41.813l12.78 22.126l60.157-64.25l1.188 44.187l33.875-42.625V17.22H136.094zM85.468 186.03c-16.63.038-34.107 1.616-52.345 4.376l-7.906 1.188l-.064 7.97c-.35 40.24 4.84 67.31 16.125 85.936c11.287 18.627 29.17 27.313 48.626 29.938c6.937.935 14.17 1.266 21.656 1.218v-92.47c-18.67 4.285-32.593 20.996-32.593 40.97c0 12.76 5.68 24.195 14.655 31.906a78 78 0 0 1-1.22-.156c-16.03-2.162-26.822-7.34-35.155-21.094c-7.72-12.74-12.852-34.287-13.313-67.968c14.533-1.918 28.44-3.073 41.47-3.094c25.72-.042 48.403 3.894 67.593 12.78c27.768 12.86 49.145 36.087 63.406 75.626c-23.567-1.313-45.838.293-65.906 1.97c7.748-7.628 12.563-18.238 12.563-29.97c0-20.04-14.044-36.785-32.813-41v91.75c29.98-2.004 63.35-7.024 98.438-3.187l13.968 1.53l-4-13.47c-15.143-51.256-42.066-83.663-77.812-100.217c-22.342-10.347-47.66-14.594-75.375-14.532zm347.624 0c-27.716-.06-53.034 4.186-75.375 14.532c-35.748 16.555-62.67 48.962-77.814 100.22l-3.97 13.468l13.94-1.53c35.57-3.89 69.386 1.335 99.687 3.28v-92.125c-19.397 3.735-34.063 20.795-34.063 41.28c0 11.726 4.822 22.344 12.563 29.97c-20.063-1.682-42.327-3.31-65.875-2c14.26-39.522 35.645-62.737 63.406-75.594c19.19-8.886 41.87-12.822 67.594-12.78c13.038.022 26.924 1.173 41.468 3.094c-.46 33.68-5.624 55.228-13.344 67.97c-8.333 13.753-19.093 18.93-35.125 21.092c-.41.056-.832.107-1.25.156c8.984-7.71 14.688-19.137 14.688-31.906c0-19.525-13.332-35.927-31.375-40.656v92.156c7.04.004 13.86-.335 20.406-1.22c19.458-2.623 37.37-11.31 48.656-29.936c11.287-18.627 16.443-45.695 16.094-85.938l-.062-7.968l-7.875-1.188c-18.24-2.76-35.747-4.338-52.376-4.375zm37.937 139.19l-2.717 35.124l-80.407-4.063l78.375 66.25l-39.874 9.44l68.28 27.03l.002-105.406l-23.657-28.375zm-131.124 12.03L274.5 422.53l-12.28-42.06l-29.19 96.936l-50.218-67.72l-14.593 85.845h257.53l-6.406-34.467l-53.156 19.875l-9.344-53.157l-16.938 13.44zm-300.78 15.188l-22.75 19.843v123.25h130.06l-16.186-76.5l-13.875 16.72l-24.688-54.125l-33.28 54.344l-19.282-83.533z" vector-effect="non-scaling-stroke" stroke="none"/>
        </g>
      </g>
    </g>
    <g transform="translate(-330, -30)">
      <text id="ITEM_4_HEAD" text-anchor="start" font-weight="bold" font-size="27" fill="var(--primary-text)" x="0.0" y="-10.0" data-bg-id="ITEM_4_BG" fill-opacity="1.0" style="font-size: 30px; font-family: Inter, Segoe UI, Kalam, Roboto, Helvetica, Arial, sans-serif; font-weight: 700; letter-spacing:-0.4px;" data-final-font-size="30">
        <tspan x="0.0" dy="27.25px">Hidden Success</tspan>
      </text>
      <rect id="ITEM_4_HEAD_FRAME" x="0" y="-10" width="846" height="38" fill="none"/>
      <text id="ITEM_4_BODY" text-anchor="start" font-size="19" fill="var(--primary-text)" x="0.0" y="20.0" data-bg-id="ITEM_4_BG" style="font-size: 26px; font-family: Inter, Segoe UI, Kalam, Roboto, Helvetica, Arial, sans-serif; font-weight: 400;" data-final-font-size="26">
        <tspan x="0.0" dy="29.62px">Reframing non-events as successes on hidden planes</tspan>
      </text>
      <rect id="ITEM_4_BODY_FRAME" x="0" y="20" width="846" height="74" fill="none"/>
    </g>
  </g>
  <g transform="translate(960.0, 795.0)">
    <rect id="ITEM_5_BG" x="-600" y="-40" width="1200" height="126" rx="24" fill="var(--accent-4)" stroke="var(--accent-5)" filter="url(#svg929bd328-shadow)" stroke-width="3" fill-opacity="1.0"/>
    <g transform="translate(-480.0, 0.0)">
      <circle r="45" fill="var(--background)" opacity="0.3"/>
      <circle id="ITEM_5_PAD" cx="0" cy="0" r="38" fill="var(--icon-pad-bg)" stroke="var(--primary-text)" opacity="0.9" fill-opacity="0.9" stroke-width="2"/>
      <circle id="ITEM_5_PAD_INNER" cx="0" cy="0" r="29.64" fill="var(--accent-4)" fill-opacity="0.22"/>
      <circle cx="0" cy="0" r="30" fill="none" stroke="var(--accent-4)" stroke-width="3" stroke-dasharray="6 4"/>
      <g id="ITEM_5_ICON" transform="translate(-31, -31)" data-icon-size="62" stroke-dasharray="6 4">
        <g transform="translate(-4.428571428571431,-4.428571428571429) scale(2.2142857142857144)">
          <path d="M8 26H27V4C27 2.89543 26.1046 2 25 2H8V26Z" fill="#533566"/>
          <path d="M6 27H27V29H6V27Z" fill="#D3D3D3"/>
          <path d="M12.5 7C12.5 6.44772 12.9477 6 13.5 6H18.5C19.0523 6 19.5 6.44772 19.5 7V9C19.5 9.55228 19.0523 10 18.5 10H13.5C12.9477 10 12.5 9.55228 12.5 9V7Z" fill="white"/>
          <path d="M6.5 2C5.67157 2 5 2.67157 5 3.5V28H6C6 27.4477 6.44772 27 7 27H8V2H6.5Z" fill="#321B41"/>
          <path d="M6.5 26C5.67157 26 5 26.6716 5 27.5V28.5C5 29.3284 5.67157 30 6.5 30H25.5C26.1531 30 26.7087 29.5826 26.9146 29H7C6.44772 29 6 28.5523 6 28C6 27.4477 6.44772 27 7 27H27V26H6.5Z" fill="#6B438B"/>
          <path d="M23 2H24V30H23V2Z" fill="#6B438B"/>
        </g>
      </g>
    </g>
    <g transform="translate(-330, -30)">
      <text id="ITEM_5_HEAD" text-anchor="start" font-weight="bold" font-size="27" fill="var(--inverse-text)" x="0.0" y="-10.0" data-bg-id="ITEM_5_BG" fill-opacity="1.0" style="font-size: 30px; font-family: Inter, Segoe UI, Kalam, Roboto, Helvetica, Arial, sans-serif; font-weight: 700; letter-spacing:-0.4px;" data-final-font-size="30">
        <tspan x="0.0" dy="27.25px">Survivor Effect</tspan>
      </text>
      <rect id="ITEM_5_HEAD_FRAME" x="0" y="-10" width="846" height="38" fill="none"/>
      <text id="ITEM_5_BODY" text-anchor="start" font-size="19" fill="var(--inverse-text)" x="0.0" y="20.0" data-bg-id="ITEM_5_BG" style="font-size: 26px; font-family: Inter, Segoe UI, Kalam, Roboto, Helvetica, Arial, sans-serif; font-weight: 400;" data-final-font-size="26">
        <tspan x="0.0" dy="29.62px">Only the most committed remain for later interviews</tspan>
      </text>
      <rect id="ITEM_5_BODY_FRAME" x="0" y="20" width="846" height="74" fill="none"/>
    </g>
  </g>
  <g transform="translate(960.0, 930.0)">
    <rect id="ITEM_6_BG" x="-600" y="-40" width="1200" height="126" rx="24" fill="var(--accent-5)" stroke="var(--accent-6)" filter="url(#svg929bd328-shadow)" stroke-width="3" fill-opacity="1.0"/>
    <g transform="translate(-480.0, 0.0)">
      <circle r="45" fill="var(--background)" opacity="0.3"/>
      <circle id="ITEM_6_PAD" cx="0" cy="0" r="38" fill="var(--icon-pad-bg)" stroke="var(--primary-text)" opacity="0.9" fill-opacity="0.9" stroke-width="2"/>
      <circle id="ITEM_6_PAD_INNER" cx="0" cy="0" r="29.64" fill="var(--accent-5)" fill-opacity="0.22"/>
      <circle cx="0" cy="0" r="30" fill="none" stroke="var(--accent-5)" stroke-width="3" stroke-dasharray="6 4"/>
      <g id="ITEM_6_ICON" transform="translate(-31, -31)" data-icon-size="62" stroke-dasharray="6 4">
        <g transform="translate(-4.115044247787608,-4.3893805309734475) scale(2.1946902654867255)">
          <path d="M23.5103 2.01H8.60027V2H4.45026V5H6.95026V27.07C6.95026 28.69 8.27026 30.01 9.89026 30.01H25.5603C26.3303 30.01 26.9503 29.39 26.9503 28.62V5.45C26.9503 3.55 25.4103 2.01 23.5103 2.01Z" fill="#FFDEA7"/>
          <path d="M10.8603 29.99C10.8603 29.99 13.1003 29.66 13.5903 27.49C13.6603 27.19 14.0003 26.97 14.4003 26.97H29.1303C29.6503 26.97 30.0403 27.33 29.9503 27.71C29.7203 28.6 29.3503 30 25.5803 30C20.0103 30 10.8603 29.99 10.8603 29.99Z" fill="#E19747"/>
          <path d="M6.95026 5C6.95026 3.34 5.83027 2 4.45026 2C3.26026 2 2.27028 3 2.01028 4.33C1.95028 4.67 2.16026 5 2.45026 5H6.95026Z" fill="#D3883E"/>
          <path d="M10.4203 11.87C10.1441 11.87 9.92029 12.0939 9.92029 12.37C9.92029 12.6461 10.1441 12.87 10.4203 12.87H23.5003C23.7764 12.87 24.0003 12.6461 24.0003 12.37C24.0003 12.0939 23.7764 11.87 23.5003 11.87H10.4203ZM9.98029 15.33C9.98029 15.0539 10.2041 14.83 10.4803 14.83H23.5003C23.7764 14.83 24.0003 15.0539 24.0003 15.33C24.0003 15.6062 23.7764 15.83 23.5003 15.83H10.4803C10.2041 15.83 9.98029 15.6062 9.98029 15.33ZM10.4803 17.85C10.2041 17.85 9.98029 18.0738 9.98029 18.35C9.98029 18.6261 10.2041 18.85 10.4803 18.85H23.5003C23.7764 18.85 24.0003 18.6261 24.0003 18.35C24.0003 18.0738 23.7764 17.85 23.5003 17.85H10.4803ZM10.5103 20.83C10.2341 20.83 10.0103 21.0539 10.0103 21.33C10.0103 21.6062 10.2341 21.83 10.5103 21.83H18.4703C18.7464 21.83 18.9703 21.6062 18.9703 21.33C18.9703 21.0539 18.7464 20.83 18.4703 20.83H10.5103Z" fill="#D3883E"/>
        </g>
      </g>
    </g>
    <g transform="translate(-330, -30)">
      <text id="ITEM_6_HEAD" text-anchor="start" font-weight="bold" font-size="27" fill="var(--primary-text)" x="0.0" y="-10.0" data-bg-id="ITEM_6_BG" fill-opacity="1.0" style="font-size: 30px; font-family: Inter, Segoe UI, Kalam, Roboto, Helvetica, Arial, sans-serif; font-weight: 700; letter-spacing:-0.4px;" data-final-font-size="30">
        <tspan x="0.0" dy="27.25px">Adaptive Doctrine</tspan>
      </text>
      <rect id="ITEM_6_HEAD_FRAME" x="0" y="-10" width="846" height="38" fill="none"/>
      <text id="ITEM_6_BODY" text-anchor="start" font-size="19" fill="var(--primary-text)" x="0.0" y="20.0" data-bg-id="ITEM_6_BG" style="font-size: 26px; font-family: Inter, Segoe UI, Kalam, Roboto, Helvetica, Arial, sans-serif; font-weight: 400;" data-final-font-size="26">
        <tspan x="0.0" dy="29.62px">Flexible worldviews survive contact with failed dates</tspan>
      </text>
      <rect id="ITEM_6_BODY_FRAME" x="0" y="20" width="846" height="74" fill="none"/>
    </g>
  </g>
</svg>
