<?xml version='1.0' encoding='utf-8'?>
<svg xmlns="http://www.w3.org/2000/svg" width="1920" height="1080" viewBox="0 0 1920 1080" data-theme="light">
  <style>
        @font-face {
            font-family: 'Inter';
            src: url('assets/fonts/Inter-Regular.ttf') format('truetype');
            font-weight: 400;
            font-style: normal;
            font-display: swap;
        }
        @font-face {
            font-family: 'Inter';
            src: url('assets/fonts/Inter-Bold.ttf') format('truetype');
            font-weight: 600;
            font-style: normal;
            font-display: swap;
        }
        @font-face {
            font-family: 'Inter';
            src: url('assets/fonts/Inter-Bold.ttf') format('truetype');
            font-weight: 800;
            font-style: normal;
            font-display: swap;
        }
        
:root {
    --background: #f8fafc;
    --panel: #ffffff;
    --primary-text: #0f172a;
    --muted-text: #64748b;
    --inverse-text: #ffffff;
    --border: #e2e8f0;
    --shadow-color: #000000;
    --icon-pad-bg: #1e293b;
    --art-glow: #0891b2;
    --art-glow-opacity: 0.10;
    --art-sheen: #ffffff;
    --art-sheen-opacity: 0.34;
    --art-shadow: #0f172a;
    --art-shadow-opacity: 0.14;
    --art-muted-line: #94a3b8;
    --art-panel-tint: #f1f5f9;
    --font-family: 'Inter', 'Segoe UI', 'Kalam', Roboto, Helvetica, Arial, sans-serif;
    --radius-xl: 16px;
    --font-family-headline: 'Inter', 'Segoe UI', 'Kalam', Roboto, Helvetica, Arial, sans-serif;
    --font-family-body: 'Inter', 'Segoe UI', 'Kalam', Roboto, Helvetica, Arial, sans-serif;
    --font-heading: 'Inter', 'Segoe UI', 'Kalam', Roboto, Helvetica, Arial, sans-serif;
    --font-body: 'Inter', 'Segoe UI', 'Kalam', Roboto, Helvetica, Arial, sans-serif;
    --font-size-h1: 56px;
    --font-size-h2: 40px;
    --font-size-h3: 28px;
    --font-size-body: 24px;
    --font-size-caption: 18px;
    --secondary-text: var(--muted-text);
    --panel-border: var(--border);
    --font-weight-normal: 400;
    --font-weight-medium: 500;
    --font-weight-semibold: 600;
    --font-weight-bold: 700;
    --spacing-gutter-pct: 0.07;
    --spacing-top-pct: 0.15;
    --spacing-bottom-pct: 0.07;
    --spacing-title-y-pct: 0.055;
    --accent-1: #3b82f6;
    --accent-2: #22c55e;
    --accent-3: #f59e0b;
    --accent-4: #ec4899;
    --accent-5: #8b5cf6;
    --accent-6: #06b6d4;
}
:root[data-theme="dark"] {
    --background: #0f172a;
    --panel: #1e293b;
    --primary-text: #f1f5f9;
    --muted-text: #94a3b8;
    --inverse-text: #0f172a;
    --border: #334155;
    --shadow-color: #000000;
    --icon-pad-bg: #1e293b;
    --art-glow: #7dd3fc;
    --art-glow-opacity: 0.18;
    --art-sheen: #ffffff;
    --art-sheen-opacity: 0.18;
    --art-shadow: #000000;
    --art-shadow-opacity: 0.28;
    --art-muted-line: #64748b;
    --art-panel-tint: #1e293b;
    --accent-1: #93c5fd;
    --accent-2: #86efac;
    --accent-3: #fcd34d;
    --accent-4: #f9a8d4;
    --accent-5: #c4b5fd;
    --accent-6: #a5f3fc;
}
:root[data-theme="light"] {
    --background: #f8fafc;
    --panel: #ffffff;
    --primary-text: #0f172a;
    --muted-text: #64748b;
    --inverse-text: #ffffff;
    --border: #e2e8f0;
    --shadow-color: #000000;
    --icon-pad-bg: #1e293b;
    --art-glow: #0891b2;
    --art-glow-opacity: 0.10;
    --art-sheen: #ffffff;
    --art-sheen-opacity: 0.34;
    --art-shadow: #0f172a;
    --art-shadow-opacity: 0.14;
    --art-muted-line: #94a3b8;
    --art-panel-tint: #f1f5f9;
    --accent-1: #3b82f6;
    --accent-2: #22c55e;
    --accent-3: #f59e0b;
    --accent-4: #ec4899;
    --accent-5: #8b5cf6;
    --accent-6: #06b6d4;
}</style>
  <rect x="0" y="0" width="1.92E+3" height="1.08E+3" fill="#252a34" stroke="none" id="programmatic_background"/>
  <line id="HEADER_DECOR" x1="960.0" x2="1080.0" y1="135.0" y2="135.0" stroke="var(--accent-1)" stroke-width="6" stroke-linecap="round"/>
  <defs>
    <pattern id="svg86e00d4b-napkin-hatch" patternUnits="userSpaceOnUse" width="12" height="12">
      <path d="M -3 12 L 12 -3 M 0 15 L 15 0" fill="none" stroke="var(--primary-text)" stroke-width="1" stroke-opacity="0.05"/>
    </pattern>
    <filter id="svg86e00d4b-shadow" x="-30%" y="-30%" width="160%" height="160%">
      <feDropShadow dx="0" dy="2" stdDeviation="3" flood-color="#000000" flood-opacity="0.08"/>
      <feDropShadow dx="0" dy="6" stdDeviation="10" flood-color="#000000" flood-opacity="0.12"/>
    </filter>
    <marker id="svg86e00d4b-arrowhead" markerWidth="10" markerHeight="10" refX="9" refY="5" orient="auto">
      <path d="M 0 0 L 10 5 L 0 10 Z" fill="var(--accent-1)"/>
    </marker>
    <filter id="svg86e00d4b-text-glow" x="-20%" y="-20%" width="140%" height="140%">
      <feDropShadow dx="0" dy="0" stdDeviation="2" flood-color="#000000" flood-opacity="0.4"/>
    </filter>
    <radialGradient id="svg86e00d4b-universal-edge-vignette" cx="50%" cy="50%" r="72%">
      <stop offset="0%" stop-color="var(--background)" stop-opacity="0"/>
      <stop offset="72%" stop-color="var(--background)" stop-opacity="0.12"/>
      <stop offset="100%" stop-color="var(--primary-text)" stop-opacity="0.08"/>
    </radialGradient>
    <linearGradient id="svg86e00d4b-universal-surface-sheen" x1="0%" y1="0%" x2="100%" y2="100%">
      <stop offset="0%" stop-color="var(--art-sheen)" stop-opacity="var(--art-sheen-opacity)"/>
      <stop offset="46%" stop-color="var(--art-sheen)" stop-opacity="0.035"/>
      <stop offset="100%" stop-color="var(--art-panel-tint)" stop-opacity="0.14"/>
    </linearGradient>
    <radialGradient id="svg86e00d4b-universal-icon-aura" cx="50%" cy="42%" r="64%">
      <stop offset="0%" stop-color="var(--art-glow)" stop-opacity="var(--art-glow-opacity)"/>
      <stop offset="100%" stop-color="var(--background)" stop-opacity="0"/>
    </radialGradient>
    <linearGradient id="svg86e00d4b-myth-card-sheen" x1="0%" y1="0%" x2="100%" y2="100%">
      <stop offset="0%" stop-color="var(--inverse-text)" stop-opacity="0.18"/>
      <stop offset="56%" stop-color="var(--inverse-text)" stop-opacity="0.03"/>
      <stop offset="100%" stop-color="var(--background)" stop-opacity="0.12"/>
    </linearGradient>
  </defs>
  <rect width="100%" height="100%" fill="var(--background)" id="CANVAS_BG"/>
  <rect width="100%" height="100%" fill="url(#svg86e00d4b-napkin-hatch)"/>
  <rect id="UNIVERSAL_EDGE_VIGNETTE" width="100%" height="100%" fill="url(#svg86e00d4b-universal-edge-vignette)" opacity="0.62"/>
  <text id="TITLE" x="960.0" y="59" text-anchor="middle" font-weight="800" font-size="56" fill="#0f172a" style="font-size: 60px; font-family: Inter, Segoe UI, Kalam, Roboto, Helvetica, Arial, sans-serif; font-weight: 700; letter-spacing:-1.2px;" data-final-font-size="60">
    <tspan x="960.0" dy="68.00px">UFO Prophecy Evidence Paradox</tspan>
  </text>
  <rect id="TITLE_FRAME" x="134" y="59" width="1652" height="103" fill="none"/>
  <g transform="translate(0, 190) scale(1.0)">
    <path d="M 920 -8 C 950 80 950 720 920 808" stroke="var(--primary-text)" stroke-width="2" stroke-opacity="0.10" fill="none"/>
    <path d="M 1000 -8 C 970 80 970 720 1000 808" stroke="var(--primary-text)" stroke-width="2" stroke-opacity="0.10" fill="none"/>
    <text x="480.0" y="0" text-anchor="middle" font-weight="900" font-size="52" fill="var(--accent-1)">MYTHS</text>
    <text x="1440.0" y="0" text-anchor="middle" font-weight="900" font-size="52" fill="var(--accent-2)">REALITY</text>
    <g transform="translate(480.0, 200.0)">
      <rect id="ITEM_1_ACCENT_BG" x="-400" y="-180.0" width="800" height="395.0" rx="24" fill="var(--accent-6)" fill-opacity="1.0"/>
      <rect id="ITEM_1_BG" x="-400" y="-180.0" width="800" height="395.0" rx="24" fill="var(--panel)" stroke="var(--accent-1)" filter="url(#svg86e00d4b-shadow)" stroke-width="3"/>
      <rect x="-388" y="-168.0" width="776" height="371.0" rx="22" fill="url(#svg86e00d4b-myth-card-sheen)" opacity="0.92"/>
      <circle id="ITEM_1_PAD" cx="-330" cy="-100" r="50" fill="var(--icon-pad-bg)" stroke="var(--background)" stroke-width="2" stroke-opacity="0.65" opacity="0.94" fill-opacity="0.9"/>
      <circle id="ITEM_1_PAD_INNER" cx="-330" cy="-100" r="39.00" fill="var(--accent-6)" fill-opacity="0.22"/>
      <circle cx="-330" cy="-100" r="36" fill="none" stroke="var(--accent-1)" stroke-width="3" stroke-dasharray="6 4"/>
      <g id="ITEM_1_ICON" transform="translate(-360, -130)" data-icon-size="60" stroke-dasharray="6 4">
        <g transform="translate(-16.22222222222222,-16.22222222222222) scale(3.8518518518518516)" vector-effect="non-scaling-stroke" stroke-width="2.43" stroke-linecap="round" stroke-linejoin="round" stroke-opacity="1.0">
          <path d="M3 3m0 2a2 2 0 0 1 2 -2h14a2 2 0 0 1 2 2v14a2 2 0 0 1 -2 2h-14a2 2 0 0 1 -2 -2z" vector-effect="non-scaling-stroke" fill="none" stroke="#f1f5f9"/>
          <path d="M9 8l0 8" vector-effect="non-scaling-stroke" fill="none" stroke="#f1f5f9"/>
          <path d="M9 12l6 0" vector-effect="non-scaling-stroke" fill="none" stroke="#f1f5f9"/>
          <path d="M15 8l0 8" vector-effect="non-scaling-stroke" fill="none" stroke="#f1f5f9"/>
        </g>
      </g>
      <text id="ITEM_1_HEAD" x="0.0" y="-130.0" text-anchor="middle" font-weight="bold" font-size="32" fill="var(--primary-text)" data-bg-id="ITEM_1_BG" fill-opacity="1.0" style="font-size: 30px; font-family: Inter, Segoe UI, Kalam, Roboto, Helvetica, Arial, sans-serif; font-weight: 700; letter-spacing:-0.4px;" data-final-font-size="30">
        <tspan x="0.0" dy="41.85px">Visible Prediction</tspan>
      </text>
      <rect id="ITEM_1_HEAD_FRAME" x="-310" y="-130" width="620" height="60" fill="none"/>
      <text id="ITEM_1_BODY" x="0.0" y="-50.0" text-anchor="middle" font-size="24" fill="var(--primary-text)" opacity="0.88" data-bg-id="ITEM_1_BG" style="font-size: 26px; font-family: Inter, Segoe UI, Kalam, Roboto, Helvetica, Arial, sans-serif; font-weight: 400;" data-final-font-size="26">
        <tspan x="0.0" dy="61.28px">Original claims promised observable landings</tspan>
        <tspan x="0.0" dy="29.90px">or public catastrophes</tspan>
      </text>
      <rect id="ITEM_1_BODY_FRAME" x="-310" y="-50" width="620" height="230" fill="none"/>
    </g>
    <g transform="translate(1440.0, 200.0)">
      <rect id="ITEM_2_ACCENT_BG" x="-400" y="-180.0" width="800" height="395.0" rx="24" fill="var(--accent-2)" fill-opacity="1.0"/>
      <rect id="ITEM_2_BG" x="-400" y="-180.0" width="800" height="395.0" rx="24" fill="var(--panel)" stroke="var(--accent-2)" filter="url(#svg86e00d4b-shadow)" stroke-width="3"/>
      <rect x="-388" y="-168.0" width="776" height="371.0" rx="22" fill="url(#svg86e00d4b-myth-card-sheen)" opacity="0.92"/>
      <circle id="ITEM_2_PAD" cx="330" cy="-100" r="50" fill="var(--icon-pad-bg)" stroke="var(--background)" stroke-width="2" stroke-opacity="0.65" opacity="0.94" fill-opacity="0.9"/>
      <circle id="ITEM_2_PAD_INNER" cx="330" cy="-100" r="39.00" fill="var(--accent-2)" fill-opacity="0.22"/>
      <circle cx="330" cy="-100" r="36" fill="none" stroke="var(--accent-2)" stroke-width="3" stroke-dasharray="6 4"/>
      <g id="ITEM_2_ICON" transform="translate(300, -130)" data-icon-size="60" stroke-dasharray="6 4">
        <g transform="translate(-15.736363636363638,-14.672727272727272) scale(2.8363636363636364)">
          <path d="M12.0955 2.00006C11.3976 1.98479 10.7193 2.23248 10.1955 2.69402C9.35852 3.44402 9.47151 4.16102 8.72451 5.21502C8.51573 5.55185 8.24017 5.84237 7.91475 6.06854C7.58934 6.29471 7.22102 6.4518 6.83254 6.53008L6.80355 6.53704C6.2786 6.68227 5.81167 6.98694 5.46737 7.40899C5.12307 7.83104 4.91839 8.34958 4.88155 8.893C4.23255 13.982 5.98151 21.8931 10.2035 26.2241C11.3554 27.3166 12.611 28.2941 13.9525 29.143C15.3322 29.6195 16.8318 29.6195 18.2115 29.143C19.5677 28.3047 20.8315 27.3252 21.9816 26.221C26.0686 22.029 27.9655 14.0831 27.3035 8.89007C27.272 8.33987 27.0659 7.81407 26.715 7.38909C26.3641 6.96412 25.8869 6.6621 25.3526 6.52703C24.9641 6.44875 24.5957 6.29166 24.2703 6.06549C23.9449 5.83931 23.6694 5.54892 23.4606 5.21209C22.7846 4.25809 22.7935 3.4121 21.9895 2.6911C21.4657 2.22955 20.7875 1.98174 20.0895 1.997L12.0955 2.00006Z" fill="#E6E6E6"/>
          <path d="M20.0089 3.5H16L12.7858 15.9188L16 28.5C18 28.5 18 28 20 26.5C20 26.5 26.5 22 26 9.5C26 9.5 26.0024 8.25 25 8C22.5 7.5 21.5 4.5 21.5 4.5C21.368 4.16593 21 3.5 20.0089 3.5Z" fill="#AEDDFF"/>
          <path d="M12.0186 3.5H16.0275V28.5C14.0275 28.5 14.0275 28 12.0275 26.5C12.0275 26.5 5.52747 22 6.02747 9.5C6.02747 9.5 6.02505 8.25 7.02747 8C9.52747 7.5 10.5275 4.5 10.5275 4.5C10.6594 4.16593 11.0275 3.5 12.0186 3.5Z" fill="#00A6ED"/>
        </g>
      </g>
      <text id="ITEM_2_HEAD" x="0.0" y="-130.0" text-anchor="middle" font-weight="bold" font-size="32" fill="var(--primary-text)" data-bg-id="ITEM_2_BG" fill-opacity="1.0" style="font-size: 30px; font-family: Inter, Segoe UI, Kalam, Roboto, Helvetica, Arial, sans-serif; font-weight: 700; letter-spacing:-0.4px;" data-final-font-size="30">
        <tspan x="0.0" dy="41.85px">Invisible Rescue</tspan>
      </text>
      <rect id="ITEM_2_HEAD_FRAME" x="-310" y="-130" width="620" height="60" fill="none"/>
      <text id="ITEM_2_BODY" x="0.0" y="-50.0" text-anchor="middle" font-size="24" fill="var(--primary-text)" opacity="0.88" data-bg-id="ITEM_2_BG" style="font-size: 26px; font-family: Inter, Segoe UI, Kalam, Roboto, Helvetica, Arial, sans-serif; font-weight: 400;" data-final-font-size="26">
        <tspan x="0.0" dy="61.28px">Believers claim secret interventions saved</tspan>
        <tspan x="0.0" dy="29.90px">humanity from disaster</tspan>
      </text>
      <rect id="ITEM_2_BODY_FRAME" x="-310" y="-50" width="620" height="230" fill="none"/>
    </g>
    <g transform="translate(480.0, 600.0)">
      <rect id="ITEM_3_ACCENT_BG" x="-400" y="-180.0" width="800" height="395.0" rx="24" fill="var(--accent-3)" fill-opacity="0.15"/>
      <rect id="ITEM_3_BG" x="-400" y="-180.0" width="800" height="395.0" rx="24" fill="var(--panel)" stroke="var(--accent-3)" filter="url(#svg86e00d4b-shadow)" stroke-width="3"/>
      <rect x="-388" y="-168.0" width="776" height="371.0" rx="22" fill="url(#svg86e00d4b-myth-card-sheen)" opacity="0.92"/>
      <circle id="ITEM_3_PAD" cx="-330" cy="-100" r="50" fill="var(--icon-pad-bg)" stroke="var(--background)" stroke-width="2" stroke-opacity="0.65" opacity="0.94"/>
      <circle id="ITEM_3_PAD_INNER" cx="-330" cy="-100" r="39.00" fill="var(--accent-3)" fill-opacity="0.22"/>
      <circle cx="-330" cy="-100" r="36" fill="none" stroke="var(--accent-3)" stroke-width="3" stroke-dasharray="6 4"/>
      <g id="ITEM_3_ICON" transform="translate(-360, -130)" data-icon-size="60" stroke-dasharray="6 4">
        <g transform="translate(-13.178571428571425,-14.571428571428571) scale(2.7857142857142856)" vector-effect="non-scaling-stroke" fill="#f1f5f9" fill-opacity="1.0" stroke="none">
          <path fill="#f1f5f9" d="M13 30a11 11 0 0 1 0-22a1 1 0 0 1 1 1v9h9a1 1 0 0 1 1 1a11 11 0 0 1-11 11m-1-19.94A9 9 0 1 0 21.94 20H14a2 2 0 0 1-2-2Z" vector-effect="non-scaling-stroke" stroke="none"/>
          <path fill="#f1f5f9" d="M28 14h-9a2 2 0 0 1-2-2V3a1 1 0 0 1 1-1a11 11 0 0 1 11 11a1 1 0 0 1-1 1m-9-2h7.94A9 9 0 0 0 19 4.06Z" vector-effect="non-scaling-stroke" stroke="none"/>
        </g>
      </g>
      <text id="ITEM_3_HEAD" x="0.0" y="-130.0" text-anchor="middle" font-weight="bold" font-size="32" fill="var(--primary-text)" data-bg-id="ITEM_3_BG" style="font-size: 30px; font-family: Inter, Segoe UI, Kalam, Roboto, Helvetica, Arial, sans-serif; font-weight: 700; letter-spacing:-0.4px;" data-final-font-size="30">
        <tspan x="0.0" dy="41.85px">Circular Logic</tspan>
      </text>
      <rect id="ITEM_3_HEAD_FRAME" x="-310" y="-130" width="620" height="60" fill="none"/>
      <text id="ITEM_3_BODY" x="0.0" y="-50.0" text-anchor="middle" font-size="24" fill="var(--primary-text)" opacity="0.88" data-bg-id="ITEM_3_BG" style="font-size: 26px; font-family: Inter, Segoe UI, Kalam, Roboto, Helvetica, Arial, sans-serif; font-weight: 400;" data-final-font-size="26">
        <tspan x="0.0" dy="67.26px">Absence of disaster is cited as proof of success</tspan>
      </text>
      <rect id="ITEM_3_BODY_FRAME" x="-310" y="-50" width="620" height="230" fill="none"/>
    </g>
    <g transform="translate(1440.0, 600.0)">
      <rect id="ITEM_4_ACCENT_BG" x="-400" y="-180.0" width="800" height="395.0" rx="24" fill="var(--accent-4)" fill-opacity="0.15"/>
      <rect id="ITEM_4_BG" x="-400" y="-180.0" width="800" height="395.0" rx="24" fill="var(--panel)" stroke="var(--accent-4)" filter="url(#svg86e00d4b-shadow)" stroke-width="3"/>
      <rect x="-388" y="-168.0" width="776" height="371.0" rx="22" fill="url(#svg86e00d4b-myth-card-sheen)" opacity="0.92"/>
      <circle id="ITEM_4_PAD" cx="330" cy="-100" r="50" fill="var(--icon-pad-bg)" stroke="var(--background)" stroke-width="2" stroke-opacity="0.65" opacity="0.94"/>
      <circle id="ITEM_4_PAD_INNER" cx="330" cy="-100" r="39.00" fill="var(--accent-4)" fill-opacity="0.22"/>
      <circle cx="330" cy="-100" r="36" fill="none" stroke="var(--accent-4)" stroke-width="3" stroke-dasharray="6 4"/>
      <g id="ITEM_4_ICON" transform="translate(300, -130)" data-icon-size="60" stroke-dasharray="6 4">
        <g transform="translate(-9.0,-9.0) scale(5.571428571428571)" vector-effect="non-scaling-stroke" stroke-width="2.43" stroke-linecap="round" stroke-linejoin="round" stroke-opacity="1.0">
          <path id="Vector" fill="none" d="M6 11.5a5.5 5.5 0 1 0 0 -11 5.5 5.5 0 0 0 0 11Z" vector-effect="non-scaling-stroke" stroke="#f1f5f9"/>
          <path id="Vector_2" stroke="#f1f5f9" d="M6 11.5a5.5 5.5 0 1 0 0 -11 5.5 5.5 0 0 0 0 11Z" vector-effect="non-scaling-stroke" fill="none"/>
          <path id="Vector_3" stroke="#f1f5f9" d="M13.5 13.5 10 10" vector-effect="non-scaling-stroke" fill="none"/>
        </g>
      </g>
      <text id="ITEM_4_HEAD" x="0.0" y="-130.0" text-anchor="middle" font-weight="bold" font-size="32" fill="var(--primary-text)" data-bg-id="ITEM_4_BG" style="font-size: 30px; font-family: Inter, Segoe UI, Kalam, Roboto, Helvetica, Arial, sans-serif; font-weight: 700; letter-spacing:-0.4px;" data-final-font-size="30">
        <tspan x="0.0" dy="41.85px">External Skepticism</tspan>
      </text>
      <rect id="ITEM_4_HEAD_FRAME" x="-310" y="-130" width="620" height="60" fill="none"/>
      <text id="ITEM_4_BODY" x="0.0" y="-50.0" text-anchor="middle" font-size="24" fill="var(--primary-text)" opacity="0.88" data-bg-id="ITEM_4_BG" style="font-size: 26px; font-family: Inter, Segoe UI, Kalam, Roboto, Helvetica, Arial, sans-serif; font-weight: 400;" data-final-font-size="26">
        <tspan x="0.0" dy="61.28px">Outsiders view missing evidence as a</tspan>
        <tspan x="0.0" dy="29.90px">definitive failure</tspan>
      </text>
      <rect id="ITEM_4_BODY_FRAME" x="-310" y="-50" width="620" height="230" fill="none"/>
    </g>
  </g>
</svg>
