<?xml version='1.0' encoding='utf-8'?>
<svg xmlns="http://www.w3.org/2000/svg" width="1920" height="1080" viewBox="0 0 1920 1080" data-theme="dark">
  <style>
        @font-face {
            font-family: 'Inter';
            src: url('assets/fonts/Inter-Regular.ttf') format('truetype');
            font-weight: 400;
            font-style: normal;
            font-display: swap;
        }
        @font-face {
            font-family: 'Inter';
            src: url('assets/fonts/Inter-Bold.ttf') format('truetype');
            font-weight: 600;
            font-style: normal;
            font-display: swap;
        }
        @font-face {
            font-family: 'Inter';
            src: url('assets/fonts/Inter-Bold.ttf') format('truetype');
            font-weight: 800;
            font-style: normal;
            font-display: swap;
        }
        
:root {
    --background: #0f172a;
    --panel: #1e293b;
    --primary-text: #f1f5f9;
    --muted-text: #94a3b8;
    --inverse-text: #0f172a;
    --border: #334155;
    --shadow-color: #000000;
    --icon-pad-bg: #1e293b;
    --art-glow: #7dd3fc;
    --art-glow-opacity: 0.18;
    --art-sheen: #ffffff;
    --art-sheen-opacity: 0.18;
    --art-shadow: #000000;
    --art-shadow-opacity: 0.28;
    --art-muted-line: #64748b;
    --art-panel-tint: #1e293b;
    --font-family: 'Inter', 'Segoe UI', 'Kalam', Roboto, Helvetica, Arial, sans-serif;
    --radius-xl: 16px;
    --font-family-headline: 'Inter', 'Segoe UI', 'Kalam', Roboto, Helvetica, Arial, sans-serif;
    --font-family-body: 'Inter', 'Segoe UI', 'Kalam', Roboto, Helvetica, Arial, sans-serif;
    --font-heading: 'Inter', 'Segoe UI', 'Kalam', Roboto, Helvetica, Arial, sans-serif;
    --font-body: 'Inter', 'Segoe UI', 'Kalam', Roboto, Helvetica, Arial, sans-serif;
    --font-size-h1: 56px;
    --font-size-h2: 40px;
    --font-size-h3: 28px;
    --font-size-body: 24px;
    --font-size-caption: 18px;
    --secondary-text: var(--muted-text);
    --panel-border: var(--border);
    --font-weight-normal: 400;
    --font-weight-medium: 500;
    --font-weight-semibold: 600;
    --font-weight-bold: 700;
    --spacing-gutter-pct: 0.07;
    --spacing-top-pct: 0.15;
    --spacing-bottom-pct: 0.07;
    --spacing-title-y-pct: 0.055;
    --accent-1: #60a5fa;
    --accent-2: #4ade80;
    --accent-3: #f97316;
    --accent-4: #a78bfa;
    --accent-5: #38bdf8;
    --accent-6: #94a3b8;
}
:root[data-theme="dark"] {
    --background: #0f172a;
    --panel: #1e293b;
    --primary-text: #f1f5f9;
    --muted-text: #94a3b8;
    --inverse-text: #0f172a;
    --border: #334155;
    --shadow-color: #000000;
    --icon-pad-bg: #1e293b;
    --art-glow: #7dd3fc;
    --art-glow-opacity: 0.18;
    --art-sheen: #ffffff;
    --art-sheen-opacity: 0.18;
    --art-shadow: #000000;
    --art-shadow-opacity: 0.28;
    --art-muted-line: #64748b;
    --art-panel-tint: #1e293b;
    --accent-1: #60a5fa;
    --accent-2: #4ade80;
    --accent-3: #f97316;
    --accent-4: #a78bfa;
    --accent-5: #38bdf8;
    --accent-6: #94a3b8;
}
:root[data-theme="light"] {
    --background: #f8fafc;
    --panel: #ffffff;
    --primary-text: #0f172a;
    --muted-text: #64748b;
    --inverse-text: #ffffff;
    --border: #e2e8f0;
    --shadow-color: #000000;
    --icon-pad-bg: #1e293b;
    --art-glow: #0891b2;
    --art-glow-opacity: 0.10;
    --art-sheen: #ffffff;
    --art-sheen-opacity: 0.34;
    --art-shadow: #0f172a;
    --art-shadow-opacity: 0.14;
    --art-muted-line: #94a3b8;
    --art-panel-tint: #f1f5f9;
    --accent-1: #2563eb;
    --accent-2: #16a34a;
    --accent-3: #ea580c;
    --accent-4: #7c3aed;
    --accent-5: #0284c7;
    --accent-6: #475569;
}</style>
  <rect x="0" y="0" width="1.92E+3" height="1.08E+3" fill="#252a34" stroke="none" id="programmatic_background"/>
  <line id="HEADER_DECOR" x1="960.0" x2="1080.0" y1="135.0" y2="135.0" stroke="var(--accent-1)" stroke-width="6" stroke-linecap="round"/>
  <defs>
    <pattern id="svg9bc240fc-napkin-hatch" patternUnits="userSpaceOnUse" width="12" height="12">
      <path d="M -3 12 L 12 -3 M 0 15 L 15 0" fill="none" stroke="var(--primary-text)" stroke-width="1" stroke-opacity="0.05"/>
    </pattern>
    <filter id="svg9bc240fc-shadow" x="-30%" y="-30%" width="160%" height="160%">
      <feDropShadow dx="0" dy="2" stdDeviation="3" flood-color="#000000" flood-opacity="0.08"/>
      <feDropShadow dx="0" dy="6" stdDeviation="10" flood-color="#000000" flood-opacity="0.12"/>
    </filter>
    <radialGradient id="svg9bc240fc-universal-edge-vignette" cx="50%" cy="50%" r="72%">
      <stop offset="0%" stop-color="var(--background)" stop-opacity="0"/>
      <stop offset="72%" stop-color="var(--background)" stop-opacity="0.12"/>
      <stop offset="100%" stop-color="var(--primary-text)" stop-opacity="0.08"/>
    </radialGradient>
    <linearGradient id="svg9bc240fc-universal-surface-sheen" x1="0%" y1="0%" x2="100%" y2="100%">
      <stop offset="0%" stop-color="var(--art-sheen)" stop-opacity="var(--art-sheen-opacity)"/>
      <stop offset="46%" stop-color="var(--art-sheen)" stop-opacity="0.035"/>
      <stop offset="100%" stop-color="var(--art-panel-tint)" stop-opacity="0.14"/>
    </linearGradient>
    <radialGradient id="svg9bc240fc-universal-icon-aura" cx="50%" cy="42%" r="64%">
      <stop offset="0%" stop-color="var(--art-glow)" stop-opacity="var(--art-glow-opacity)"/>
      <stop offset="100%" stop-color="var(--background)" stop-opacity="0"/>
    </radialGradient>
    <linearGradient id="svg9bc240fc-fact-card-sheen" x1="0%" y1="0%" x2="100%" y2="100%">
      <stop offset="0%" stop-color="var(--inverse-text)" stop-opacity="0.18"/>
      <stop offset="54%" stop-color="var(--inverse-text)" stop-opacity="0.04"/>
      <stop offset="100%" stop-color="var(--background)" stop-opacity="0.14"/>
    </linearGradient>
    <radialGradient id="svg9bc240fc-fact-icon-glow" cx="50%" cy="42%" r="62%">
      <stop offset="0%" stop-color="var(--inverse-text)" stop-opacity="0.22"/>
      <stop offset="100%" stop-color="var(--background)" stop-opacity="0"/>
    </radialGradient>
    <filter id="svg9bc240fc-text-glow" x="-20%" y="-20%" width="140%" height="140%">
      <feDropShadow dx="0" dy="0" stdDeviation="2" flood-color="#000000" flood-opacity="0.4"/>
    </filter>
    <marker id="svg9bc240fc-arrowhead" markerWidth="10" markerHeight="7" refX="9" refY="3.5" orient="auto" markerUnits="strokeWidth">
      <polygon points="0 0, 10 3.5, 0 7" fill="var(--muted-text)" opacity="0.6"/>
    </marker>
  </defs>
  <rect width="100%" height="100%" fill="var(--background)" id="CANVAS_BG"/>
  <rect width="100%" height="100%" fill="url(#svg9bc240fc-napkin-hatch)"/>
  <rect id="UNIVERSAL_EDGE_VIGNETTE" width="100%" height="100%" fill="url(#svg9bc240fc-universal-edge-vignette)" opacity="0.62"/>
  <line x1="960" y1="178" x2="960" y2="986" stroke="var(--muted-text)" stroke-width="5" stroke-opacity="0.10" stroke-linecap="round"/>
  <path d="M 360 178 C 620 152 1300 152 1560 178" fill="none" stroke="var(--primary-text)" stroke-width="2" stroke-opacity="0.12" stroke-linecap="round"/>
  <text id="TITLE" x="960.0" y="59" text-anchor="middle" font-weight="800" font-size="72" fill="#f1f5f9" style="font-size: 60px; font-family: Inter, Segoe UI, Kalam, Roboto, Helvetica, Arial, sans-serif; font-weight: 700; letter-spacing:-1.2px;" data-final-font-size="60">
    <tspan x="960.0" dy="68.00px">Heaven's Gate Theological Structure</tspan>
  </text>
  <rect id="TITLE_FRAME" x="134" y="59" width="1652" height="103" fill="none"/>
  <g transform="translate(960.0, 250.0)">
    <rect id="ITEM_1_BG" x="-600" y="-72" width="1200" height="176" rx="24" fill="var(--accent-2)" stroke="var(--accent-1)" filter="url(#svg9bc240fc-shadow)" stroke-width="3" fill-opacity="0.4"/>
    <g transform="translate(-480.0, 0.0)">
      <circle r="60" fill="var(--background)" opacity="0.3"/>
      <circle id="ITEM_1_PAD" cx="0" cy="0" r="50" fill="var(--icon-pad-bg)" stroke="var(--primary-text)" opacity="0.9" fill-opacity="0.9" stroke-width="2"/>
      <circle id="ITEM_1_PAD_INNER" cx="0" cy="0" r="39.00" fill="var(--accent-2)" fill-opacity="0.22"/>
      <circle cx="0" cy="0" r="40" fill="none" stroke="var(--accent-1)" stroke-width="3" stroke-dasharray="6 4"/>
      <g id="ITEM_1_ICON" transform="translate(-39, -39)" data-icon-size="78" stroke-dasharray="6 4">
        <g transform="translate(-3.305084745762712,-6.9406779661016955) scale(3.5254237288135593)" vector-effect="non-scaling-stroke" stroke-width="2.65" stroke-linecap="round" stroke-linejoin="round" stroke-opacity="1.0">
          <path d="M19 17h2c.6 0 1-.4 1-1v-3c0-.9-.7-1.7-1.5-1.9C18.7 10.6 16 10 16 10s-1.3-1.4-2.2-2.3c-.5-.4-1.1-.7-1.8-.7H5c-.6 0-1.1.4-1.4.9l-1.4 2.9A3.7 3.7 0 0 0 2 12v4c0 .6.4 1 1 1h2" vector-effect="non-scaling-stroke" fill="none" stroke="#f1f5f9"/>
          <circle cx="7" cy="17" r="2" vector-effect="non-scaling-stroke" fill="none" stroke="#f1f5f9"/>
          <path d="M9 17h6" vector-effect="non-scaling-stroke" fill="none" stroke="#f1f5f9"/>
          <circle cx="17" cy="17" r="2" vector-effect="non-scaling-stroke" fill="none" stroke="#f1f5f9"/>
        </g>
      </g>
    </g>
    <g transform="translate(-330, -36)">
      <text id="ITEM_1_HEAD" text-anchor="start" font-weight="bold" font-size="34" fill="var(--primary-text)" x="0.0" y="-10.0" data-bg-id="ITEM_1_BG" fill-opacity="1.0" stroke="none" style="font-size: 30px; font-family: Inter, Segoe UI, Kalam, Roboto, Helvetica, Arial, sans-serif; font-weight: 700; letter-spacing:-0.4px;" data-final-font-size="30">
        <tspan x="0.0" dy="30.25px">Human Vehicles</tspan>
      </text>
      <rect id="ITEM_1_HEAD_FRAME" x="0" y="-10" width="846" height="44" fill="none"/>
      <text id="ITEM_1_BODY" text-anchor="start" font-size="24" fill="var(--primary-text)" x="0.0" y="24.0" data-bg-id="ITEM_1_BG" style="font-size: 26px; font-family: Inter, Segoe UI, Kalam, Roboto, Helvetica, Arial, sans-serif; font-weight: 400;" data-final-font-size="26">
        <tspan x="0.0" dy="31.62px">Physical bodies are viewed as temporary transport vessels</tspan>
      </text>
      <rect id="ITEM_1_BODY_FRAME" x="0" y="24" width="846" height="84" fill="none"/>
    </g>
  </g>
  <g transform="translate(960.0, 465.0)">
    <rect id="ITEM_2_BG" x="-600" y="-72" width="1200" height="176" rx="24" fill="var(--accent-3)" stroke="var(--accent-2)" filter="url(#svg9bc240fc-shadow)" stroke-width="3" fill-opacity="0.4"/>
    <g transform="translate(-480.0, 0.0)">
      <circle r="60" fill="var(--background)" opacity="0.3"/>
      <circle id="ITEM_2_PAD" cx="0" cy="0" r="50" fill="var(--icon-pad-bg)" stroke="var(--primary-text)" opacity="0.9" fill-opacity="0.9" stroke-width="2"/>
      <circle id="ITEM_2_PAD_INNER" cx="0" cy="0" r="39.00" fill="var(--accent-3)" fill-opacity="0.22"/>
      <circle cx="0" cy="0" r="40" fill="none" stroke="var(--accent-1)" stroke-width="3" stroke-dasharray="6 4"/>
      <g id="ITEM_2_ICON" transform="translate(-39, -39)" data-icon-size="78" stroke-dasharray="6 4">
        <g transform="translate(-3.6355932203389862,-3.305084745762712) scale(0.1652542372881356)" vector-effect="non-scaling-stroke" fill="#f1f5f9" fill-opacity="1.0" stroke="none">
          <path fill="#f1f5f9" d="M298.736 21.016c-99.298 0-195.928 104.647-215.83 233.736c-7.074 45.887-3.493 88.68 8.512 124.787a243 243 0 0 1-11.467-20.034c-16.516-32.335-24.627-65.378-25-96.272c-11.74 36.254-8.083 82.47 14.482 126.643c27.7 54.227 81.563 91.94 139.87 97.502a136.5 136.5 0 0 0 17.364 1.108c99.298 0 195.93-104.647 215.83-233.736c9.28-60.196.23-115.072-22.133-156.506c21.625 21.867 36.56 45.786 44.617 69.496c.623-30.408-14.064-65.766-44.21-95.806c-33.718-33.598-77.227-50.91-114.995-50.723c-2.328-.118-4.67-.197-7.04-.197zm-5.6 36.357c40.223 0 73.65 20.342 95.702 53.533c15.915 42.888 12.51 108.315.98 147.858c-16.02 54.944-40.598 96.035-79.77 126.107c-41.79 32.084-98.447 24.39-115.874-5.798a43.4 43.4 0 0 1-3.38-7.385c11.724 14.06 38.188 14.944 61.817 1.3c25.48-14.71 38.003-40.727 27.968-58.108c-10.036-17.384-38.826-19.548-64.307-4.837c-9.83 5.676-17.72 13.037-23.14 20.934a82 82 0 0 1 1.626-3.88c-18.687 24.49-24.562 52.126-12.848 72.417c38.702 45.923 98.07 25.503 140.746-6.426c37.95-28.392 72.32-73.55 89.356-131.988a296 296 0 0 0 3.467-13.008c-.286 2.218-.59 4.442-.934 6.678c-16.807 109.02-98.412 197.396-182.272 197.396c-35.644 0-65.954-15.975-87.74-42.71c-26.492-48.396-15.988-142.083 4.675-185.15c26.745-55.742 66.133-122.77 134.324-116.804c46.03 4.027 63.098 58.637 39.128 116.22c-8.61 20.685-21.192 39.314-36.21 54.313c24.91-16.6 46.72-42.13 59.572-73c23.97-57.583 6.94-113.422-39.13-116.805c-85.737-6.296-137.638 58.55-177.542 128.485a319 319 0 0 0-20.977 60.707a263 263 0 0 1 2.493-22.652C127.67 145.75 209.275 57.373 293.135 57.373z" vector-effect="non-scaling-stroke" stroke="none"/>
        </g>
      </g>
    </g>
    <g transform="translate(-330, -36)">
      <text id="ITEM_2_HEAD" text-anchor="start" font-weight="bold" font-size="34" fill="var(--primary-text)" x="0.0" y="-10.0" data-bg-id="ITEM_2_BG" fill-opacity="1.0" stroke="none" style="font-size: 30px; font-family: Inter, Segoe UI, Kalam, Roboto, Helvetica, Arial, sans-serif; font-weight: 700; letter-spacing:-0.4px;" data-final-font-size="30">
        <tspan x="0.0" dy="30.25px">Next Level Realm</tspan>
      </text>
      <rect id="ITEM_2_HEAD_FRAME" x="0" y="-10" width="846" height="44" fill="none"/>
      <text id="ITEM_2_BODY" text-anchor="start" font-size="24" fill="var(--primary-text)" x="0.0" y="24.0" data-bg-id="ITEM_2_BG" style="font-size: 26px; font-family: Inter, Segoe UI, Kalam, Roboto, Helvetica, Arial, sans-serif; font-weight: 400;" data-final-font-size="26">
        <tspan x="0.0" dy="31.62px">Higher evolutionary reality exists beyond ordinary human life</tspan>
      </text>
      <rect id="ITEM_2_BODY_FRAME" x="0" y="24" width="846" height="84" fill="none"/>
    </g>
  </g>
  <g transform="translate(960.0, 660.0)">
    <rect id="ITEM_3_BG" x="-600" y="-72" width="1200" height="176" rx="24" fill="var(--accent-4)" stroke="var(--accent-3)" filter="url(#svg9bc240fc-shadow)" stroke-width="3" fill-opacity="0.4"/>
    <g transform="translate(-480.0, 0.0)">
      <circle r="60" fill="var(--background)" opacity="0.3"/>
      <circle id="ITEM_3_PAD" cx="0" cy="0" r="50" fill="var(--icon-pad-bg)" stroke="var(--primary-text)" opacity="0.9" fill-opacity="0.9" stroke-width="2"/>
      <circle id="ITEM_3_PAD_INNER" cx="0" cy="0" r="39.00" fill="var(--accent-4)" fill-opacity="0.22"/>
      <circle cx="0" cy="0" r="40" fill="none" stroke="var(--accent-2)" stroke-width="3" stroke-dasharray="6 4"/>
      <g id="ITEM_3_ICON" transform="translate(-39, -39)" data-icon-size="78" stroke-dasharray="6 4">
        <g transform="translate(-4.588235294117645,-3.277310924369748) scale(0.1638655462184874)" vector-effect="non-scaling-stroke" fill="#f1f5f9" fill-opacity="1.0" stroke="none">
          <path fill="#f1f5f9" d="M250.375 21.25c-38.192 0-68.97 30.744-68.97 68.938c0 38.193 30.778 68.968 68.97 68.968s68.938-30.775 68.938-68.97c0-38.192-30.746-68.936-68.938-68.936m-2.625 33.78c.115-.003.23.005.344 0c-26.85 53.803 52.427 66.62 40.656 9.032c4.272 1.793 8.76 3.838 13.53 6.157c3.816 15.258 3.55 30.828-2.342 46.093c-46.683 11.007-54.054 11.028-98.375-1.594c-5.345-14.747-6.03-29.762-2.344-44.5c19.356-9.562 34.072-14.612 48.53-15.19zM345.188 121c-1.26-.03-4.597.75-9.657 4.625c-.006.006-.022-.006-.03 0a212 212 0 0 1-7.78 5.688c-14.765 27.642-43.906 46.53-77.345 46.53c-33.4 0-62.523-18.846-77.313-46.437a566 566 0 0 1-9.093-5.062c-4.647-2.642-7.37-2.825-8.657-2.594c-1.29.23-2.174.692-3.657 3c-2.966 4.616-5.316 16.393-4.656 30.03c.66 13.64 3.802 29.176 8.75 42.314s11.957 23.675 18.156 27.97c50.81 35.192 99.385 27.478 151.5-.533c6.386-3.43 13.912-13.767 19.125-27.468c5.215-13.7 8.4-30.338 8.94-44.843c.538-14.506-2.292-26.98-5.22-31.095c-1.464-2.058-1.8-2.096-3.063-2.125M128.25 144.875c-20.632 9.24-36.958 25.827-49.656 48.594c4.41.183 8.78.842 13 1.968c12.22 3.26 22.512 10.243 30.062 19.375a120 120 0 0 1 14.938-13.844c-4.718-13.954-7.597-29.14-8.28-43.282c-.214-4.392-.26-8.68-.064-12.813zm242.72 24.25c-1.58 12.405-4.592 25.058-8.97 36.563c-2.413 6.342-5.193 12.393-8.5 17.843c3.59 4.06 6.944 8.37 10.03 12.97a60 60 0 0 1 8.064-10.063v-.03c8.18-8.18 18.247-13.41 28.844-15.75c-8.07-16.84-17.822-30.79-29.47-41.532zm-294.66 43.03c-10.683.044-21.528 4.17-28.312 12.282c-7.128 8.523-11.038 22.262-5.188 43.375c.136-.093.27-.19.407-.28c8.11-5.473 18.242-8.57 29.186-8.063c3.648.168 7.398.733 11.188 1.75c10.622 2.845 19.157 8.536 25.28 15.717c7.454-9.93 9.21-20.875 7.314-31.156c-2.767-14.987-13.905-28.145-29.407-32.28a40 40 0 0 0-10.468-1.344zm336.5 15.782c-.71.013-1.413.045-2.125.094c-9.48.653-18.78 4.502-25.875 11.595c-9.865 9.887-14.718 25.822-9.875 39.063c3.82 10.44 13.742 20.698 34.97 26.187c-.015-.177-.05-.354-.063-.53c-.91-13.01 3.634-26.97 14.72-38.064l-.002-.03c7.774-7.767 16.973-12.288 26.25-14c-4.87-11.43-13.457-18.44-23.312-21.938a41.8 41.8 0 0 0-14.688-2.375zm-101.437 25.97c-39.896 16.718-81.177 21.096-121.78 3.312l-10.064 39.31c8.908 2.755 16.417 7.827 22 14.25c7.355 8.462 11.61 18.985 12.876 29.814c25.23-39.572 70.19-24.214 81.906 29.187c-30.148 24.312-31.025 78.51 2.47 99.97c13.98-17.626 34.203-29.69 55.312-32.75c3.026-.44 6.09-.66 9.156-.688a68 68 0 0 1 3.063.032c7.237.266 14.457 1.735 21.312 4.562c5.298-16.073 4.073-34.643-3.188-50.156c-7.642 4.648-17.087 7.406-27.843 7.406c-16.64 0-30.15-6.565-38.688-16.594C309.37 371.534 305.66 358.6 306 345.938s4.69-25.31 13.25-35.156a47 47 0 0 1 4.72-4.686l-12.595-52.188zm146.938 16.218c-7.058.166-13.97 2.75-20.563 9.344c-7.534 7.533-9.85 15.483-9.28 23.592c.566 8.11 4.486 16.41 10.436 22.688c5.95 6.28 13.738 10.374 21.53 11c7.795.626 15.888-1.73 24.377-10.22c8.488-8.488 10.845-16.58 10.218-24.374c-.625-7.793-4.72-15.58-11-21.53c-6.278-5.95-14.577-9.87-22.686-10.438a33 33 0 0 0-3.03-.063zM70.156 278c-6.352-.102-11.73 1.835-16.47 5.03c-6.738 4.547-11.973 12.083-14.436 20.376s-2.136 17.063 1.22 24.125c3.353 7.064 9.465 12.925 21.06 16.033c11.597 3.107 19.784 1.064 26.22-3.375c6.436-4.44 11.112-11.868 13.125-20.282s1.25-17.568-2.313-24.875c-3.563-7.305-9.52-12.99-19.812-15.75c-2.573-.688-5.007-1.084-7.313-1.217c-.432-.025-.857-.056-1.28-.063zm94.03 34.938c-10.654 0-17.916 3.958-23.25 10.093c-5.33 6.137-8.422 14.76-8.655 23.408c-.232 8.647 2.37 17.046 7.44 23c5.067 5.953 12.462 10.03 24.468 10.03s19.4-4.077 24.468-10.03c5.068-5.954 7.67-14.353 7.438-23s-3.355-17.27-8.688-23.407c-5.333-6.134-12.563-10.092-23.22-10.092zm192.408 0c-10.656 0-17.917 3.958-23.25 10.093c-5.333 6.137-8.424 14.76-8.656 23.408c-.233 8.647 2.37 17.046 7.437 23c5.068 5.953 12.463 10.03 24.47 10.03c12.004 0 19.4-4.077 24.467-10.03c5.07-5.954 7.67-14.353 7.438-23s-3.355-17.27-8.688-23.407c-5.332-6.134-12.563-10.092-23.218-10.092zM121.22 375.656c-15.115 16.632-20.037 41.93-13.75 63.313c5.18-1.573 10.525-2.43 15.874-2.626c1.02-.038 2.04-.04 3.062-.03c3.065.025 6.13.247 9.156.686c22.062 3.2 43.178 16.216 57.188 35.156c34.58-17.894 37.7-67.857 13.75-95.5c-1.098 1.69-2.296 3.345-3.625 4.906c-8.537 10.03-22.048 16.594-38.688 16.594s-30.15-6.565-38.687-16.594a47.6 47.6 0 0 1-4.28-5.906zm2.81 79.313c-8.685.26-16.853 2.96-24.124 8.592c-7.895 6.116-14.975 16.094-19.72 31.344h104.25c-10.196-20.804-31.273-36.464-51.56-39.406c-2.995-.434-5.95-.618-8.845-.53zm239.407 0c-2.192.034-4.41.204-6.656.53c-20.287 2.942-41.364 18.602-51.56 39.406h104.25c-4.745-15.25-11.824-25.228-19.72-31.344c-7.27-5.63-15.44-8.333-24.125-8.593a44 44 0 0 0-2.188 0z" vector-effect="non-scaling-stroke" stroke="none"/>
        </g>
      </g>
    </g>
    <g transform="translate(-330, -36)">
      <text id="ITEM_3_HEAD" text-anchor="start" font-weight="bold" font-size="34" fill="var(--primary-text)" x="0.0" y="-10.0" data-bg-id="ITEM_3_BG" fill-opacity="1.0" stroke="none" style="font-size: 30px; font-family: Inter, Segoe UI, Kalam, Roboto, Helvetica, Arial, sans-serif; font-weight: 700; letter-spacing:-0.4px;" data-final-font-size="30">
        <tspan x="0.0" dy="30.25px">Extraterrestrial Connection</tspan>
      </text>
      <rect id="ITEM_3_HEAD_FRAME" x="0" y="-10" width="846" height="44" fill="none"/>
      <text id="ITEM_3_BODY" text-anchor="start" font-size="24" fill="var(--primary-text)" x="0.0" y="24.0" data-bg-id="ITEM_3_BG" style="font-size: 26px; font-family: Inter, Segoe UI, Kalam, Roboto, Helvetica, Arial, sans-serif; font-weight: 400;" data-final-font-size="26">
        <tspan x="0.0" dy="31.62px">Advanced beings are linked to the higher reality</tspan>
      </text>
      <rect id="ITEM_3_BODY_FRAME" x="0" y="24" width="846" height="84" fill="none"/>
    </g>
  </g>
  <g transform="translate(960.0, 855.0)">
    <rect id="ITEM_4_BG" x="-600" y="-72" width="1200" height="176" rx="24" fill="var(--accent-5)" stroke="var(--accent-4)" filter="url(#svg9bc240fc-shadow)" stroke-width="3" fill-opacity="0.4"/>
    <g transform="translate(-480.0, 0.0)">
      <circle r="60" fill="var(--background)" opacity="0.3"/>
      <circle id="ITEM_4_PAD" cx="0" cy="0" r="50" fill="var(--icon-pad-bg)" stroke="var(--primary-text)" opacity="0.9" fill-opacity="0.9" stroke-width="2"/>
      <circle id="ITEM_4_PAD_INNER" cx="0" cy="0" r="39.00" fill="var(--accent-5)" fill-opacity="0.22"/>
      <circle cx="0" cy="0" r="40" fill="none" stroke="var(--accent-3)" stroke-width="3" stroke-dasharray="6 4"/>
      <g id="ITEM_4_ICON" transform="translate(-39, -39)" data-icon-size="78" stroke-dasharray="6 4">
        <g transform="translate(-3.305084745762712,-3.305084745762712) scale(3.5254237288135593)" vector-effect="non-scaling-stroke" stroke-width="2.65" stroke-linecap="round" stroke-linejoin="round" stroke-opacity="1.0">
          <path d="M12 6v6l4 2" vector-effect="non-scaling-stroke" fill="none" stroke="#f1f5f9"/>
          <circle cx="12" cy="12" r="10" vector-effect="non-scaling-stroke" fill="none" stroke="#f1f5f9"/>
        </g>
      </g>
    </g>
    <g transform="translate(-330, -36)">
      <text id="ITEM_4_HEAD" text-anchor="start" font-weight="bold" font-size="34" fill="var(--primary-text)" x="0.0" y="-10.0" data-bg-id="ITEM_4_BG" fill-opacity="1.0" stroke="none" style="font-size: 30px; font-family: Inter, Segoe UI, Kalam, Roboto, Helvetica, Arial, sans-serif; font-weight: 700; letter-spacing:-0.4px;" data-final-font-size="30">
        <tspan x="0.0" dy="30.25px">Imminent Transition</tspan>
      </text>
      <rect id="ITEM_4_HEAD_FRAME" x="0" y="-10" width="846" height="44" fill="none"/>
      <text id="ITEM_4_BODY" text-anchor="start" font-size="24" fill="var(--primary-text)" x="0.0" y="24.0" data-bg-id="ITEM_4_BG" style="font-size: 26px; font-family: Inter, Segoe UI, Kalam, Roboto, Helvetica, Arial, sans-serif; font-weight: 400;" data-final-font-size="26">
        <tspan x="0.0" dy="31.62px">Comet Hale-Bopp provides a perceived sign for departure</tspan>
      </text>
      <rect id="ITEM_4_BODY_FRAME" x="0" y="24" width="846" height="84" fill="none"/>
    </g>
  </g>
</svg>
